<svg width="100" height="72" viewBox="0 0 100 72" fill="none" xmlns="http://www.w3.org/2000/svg">
<g clip-path="url(#clip0_4_60)">
<path d="M58.2626 32.1586H67.0918C67.2966 32.1586 67.4931 32.0775 67.6383 31.9331C67.7835 31.7886 67.8657 31.5926 67.8668 31.3878V23.5253C67.8668 23.3197 67.7851 23.1226 67.6398 22.9772C67.4944 22.8319 67.2973 22.7503 67.0918 22.7503H58.2626C58.0581 22.7503 57.8621 22.8315 57.7175 22.976C57.573 23.1206 57.4917 23.3166 57.4917 23.5211V31.3878C57.4917 31.8127 57.8376 32.1586 58.2626 32.1586ZM45.9542 9.53361H54.7793C54.9848 9.53361 55.1819 9.45194 55.3273 9.30663C55.4726 9.16125 55.5543 8.96413 55.5543 8.75861V0.891925C55.5532 0.687107 55.471 0.491052 55.3258 0.346611C55.1805 0.20217 54.9841 0.121091 54.7793 0.121094H45.9542C45.7498 0.121094 45.5538 0.202307 45.4092 0.346867C45.2646 0.491426 45.1834 0.687489 45.1834 0.891925V8.75861C45.1834 9.18357 45.5251 9.53361 45.9542 9.53361ZM45.9542 20.8461H54.7793C54.9844 20.845 55.181 20.763 55.3261 20.6179C55.4712 20.4728 55.5532 20.2763 55.5543 20.0711V12.2086C55.5532 12.0038 55.471 11.8077 55.3258 11.6633C55.1805 11.5188 54.9841 11.4378 54.7793 11.4378H45.9542C45.7498 11.4378 45.5538 11.519 45.4092 11.6635C45.2646 11.8081 45.1834 12.0042 45.1834 12.2086V20.0711C45.1834 20.4961 45.5251 20.8419 45.9542 20.8461ZM33.7459 20.8461H42.5792C42.7834 20.8439 42.9783 20.7613 43.1219 20.6162C43.2654 20.4711 43.346 20.2752 43.3459 20.0711V12.2086C43.3459 12.0042 43.2647 11.8081 43.1201 11.6635C42.9756 11.519 42.7795 11.4378 42.5751 11.4378H33.7501C33.5457 11.4378 33.3495 11.519 33.205 11.6635C33.0604 11.8081 32.9793 12.0042 32.9793 12.2086V20.0711C32.9793 20.4961 33.3251 20.8419 33.7501 20.8461M21.4001 20.8461H30.2293C30.4341 20.845 30.6301 20.7628 30.7746 20.6177C30.919 20.4724 31.0001 20.2759 31.0001 20.0711V12.2086C31.0001 12.0042 30.9189 11.8081 30.7743 11.6635C30.6298 11.519 30.4337 11.4378 30.2293 11.4378H21.4001C21.1953 11.4378 20.9987 11.5188 20.8536 11.6633C20.7083 11.8077 20.6262 12.0038 20.6251 12.2086V20.0711C20.6251 20.4961 20.9751 20.8419 21.4001 20.8461ZM45.9542 32.1586H54.7793C54.9841 32.1586 55.1805 32.0775 55.3258 31.9331C55.471 31.7886 55.5532 31.5926 55.5543 31.3878V23.5253C55.5543 23.3197 55.4726 23.1226 55.3273 22.9772C55.1819 22.8319 54.9848 22.7503 54.7793 22.7503H45.9542C45.7498 22.7503 45.5538 22.8315 45.4092 22.976C45.2646 23.1206 45.1834 23.3166 45.1834 23.5211V31.3878C45.1834 31.8127 45.5251 32.1586 45.9542 32.1586ZM33.7459 32.1586H42.5792C42.7829 32.1575 42.978 32.0758 43.1216 31.9313C43.2653 31.7869 43.3459 31.5915 43.3459 31.3878V23.5253C43.3465 23.424 43.3271 23.3237 43.2888 23.23C43.2506 23.1362 43.1943 23.0509 43.1231 22.979C43.0519 22.907 42.9672 22.8498 42.8739 22.8105C42.7806 22.7713 42.6805 22.7508 42.5792 22.7503H33.7459C33.5422 22.7513 33.3472 22.8331 33.2035 22.9775C33.0599 23.122 32.9793 23.3174 32.9793 23.5211V31.3878C32.9793 31.8127 33.3251 32.1586 33.7501 32.1586M21.4001 32.1586H30.2293C30.4337 32.1586 30.6298 32.0774 30.7743 31.9329C30.9189 31.7883 31.0001 31.5922 31.0001 31.3878V23.5253C31.0006 23.424 30.9812 23.3237 30.943 23.23C30.9048 23.1362 30.8485 23.0509 30.7773 22.979C30.706 22.907 30.6214 22.8498 30.5281 22.8105C30.4348 22.7713 30.3346 22.7508 30.2334 22.7503H21.4001C21.1946 22.7503 20.9974 22.8319 20.8521 22.9772C20.7067 23.1226 20.6251 23.3197 20.6251 23.5253V31.3878C20.6251 31.8127 20.9751 32.1586 21.4001 32.1586ZM9.2334 32.1586H18.0667C18.2705 32.1575 18.4654 32.0758 18.6091 31.9313C18.7528 31.7869 18.8334 31.5915 18.8334 31.3878V23.5253C18.834 23.424 18.8145 23.3237 18.7763 23.23C18.7381 23.1362 18.6818 23.0509 18.6106 22.979C18.5394 22.907 18.4547 22.8498 18.3614 22.8105C18.2681 22.7713 18.168 22.7508 18.0667 22.7503H9.2334C9.02968 22.7513 8.83471 22.8331 8.69105 22.9775C8.54739 23.122 8.46673 23.3174 8.46673 23.5211V31.3878C8.46673 31.8127 8.80421 32.1586 9.2334 32.1586ZM99.0126 27.2086C98.7421 26.9961 96.2126 25.0836 90.8709 25.0836C89.463 25.0878 88.0543 25.2086 86.6629 25.4461C85.6296 18.3628 79.7748 14.9045 79.5129 14.7544L78.0792 13.9252L77.1377 15.2878C75.9544 17.1128 75.0962 19.1295 74.5874 21.2461C73.6294 25.2878 74.2128 29.0878 76.2665 32.3336C73.7873 33.7169 69.8084 34.0544 69.0001 34.0836H3.12924C2.30221 34.0847 1.50926 34.4131 0.923677 34.9972C0.338106 35.5811 0.00754052 36.3733 0.00423758 37.2003C-0.0729219 42.9704 0.904217 48.7062 2.88757 54.1253C5.15841 60.0753 8.5334 64.4586 12.9293 67.142C17.8459 70.1545 25.8459 71.8795 34.9084 71.8795C39.0036 71.892 43.0909 71.5209 47.1167 70.7711C52.7119 69.7433 58.0959 67.7871 63.0459 64.9836C67.1264 62.6217 70.7987 59.6163 73.9207 56.0836C79.1376 50.1753 82.2462 43.5961 84.5582 37.7503H85.4789C91.1959 37.7503 94.7085 35.4627 96.646 33.5461C97.9334 32.3253 98.9373 30.8377 99.5917 29.1878L100 27.9878L99.0126 27.2086Z" fill="url(#paint0_linear_4_60)"/>
</g>
<defs>
<linearGradient id="paint0_linear_4_60" x1="50" y1="0.121094" x2="50" y2="71.8798" gradientUnits="userSpaceOnUse">
<stop stop-color="#328267"/>
<stop offset="1" stop-color="#314740"/>
</linearGradient>
<clipPath id="clip0_4_60">
<rect width="100" height="71.7587" fill="white" transform="translate(0 0.121094)"/>
</clipPath>
</defs>
</svg>
