<svg width="140" height="100" viewBox="0 0 140 100" fill="none" xmlns="http://www.w3.org/2000/svg">
<path d="M81.1924 44.6462H93.4964C93.7818 44.6462 94.0557 44.5332 94.258 44.3319C94.4604 44.1306 94.5749 43.8574 94.5764 43.572V32.6151C94.5764 32.3287 94.4626 32.054 94.2601 31.8514C94.0575 31.6489 93.7828 31.5351 93.4964 31.5351H81.1924C80.9075 31.5351 80.6343 31.6483 80.4328 31.8497C80.2314 32.0512 80.1182 32.3244 80.1182 32.6093V43.572C80.1182 44.1642 80.6002 44.6462 81.1924 44.6462ZM64.04 13.1169H76.3382C76.6246 13.1169 76.8993 13.0031 77.1019 12.8006C77.3044 12.598 77.4182 12.3233 77.4182 12.0369V1.0742C77.4167 0.788773 77.3022 0.515559 77.0998 0.314272C76.8974 0.112985 76.6236 -4.12515e-06 76.3382 1.12956e-10H64.04C63.7551 1.12958e-10 63.4819 0.113175 63.2804 0.314628C63.079 0.51608 62.9658 0.789306 62.9658 1.0742V12.0369C62.9658 12.6291 63.4419 13.1169 64.04 13.1169ZM64.04 28.8815H76.3382C76.6241 28.88 76.898 28.7657 77.1002 28.5635C77.3024 28.3613 77.4167 28.0875 77.4182 27.8015V16.8447C77.4167 16.5592 77.3022 16.286 77.0998 16.0847C76.8974 15.8834 76.6236 15.7705 76.3382 15.7705H64.04C63.7551 15.7705 63.4819 15.8836 63.2804 16.0851C63.079 16.2865 62.9658 16.5598 62.9658 16.8447V27.8015C62.9658 28.3938 63.4419 28.8757 64.04 28.8815ZM47.027 28.8815H59.3367C59.6212 28.8785 59.8929 28.7633 60.0929 28.5611C60.293 28.3589 60.4052 28.086 60.4051 27.8015V16.8447C60.4051 16.5598 60.292 16.2865 60.0905 16.0851C59.8891 15.8836 59.6158 15.7705 59.3309 15.7705H47.0328C46.7479 15.7705 46.4746 15.8836 46.2732 16.0851C46.0717 16.2865 45.9586 16.5598 45.9586 16.8447V27.8015C45.9586 28.3938 46.4405 28.8757 47.0328 28.8815M29.8223 28.8815H42.1263C42.4117 28.88 42.6849 28.7655 42.8862 28.5632C43.0875 28.3608 43.2005 28.087 43.2005 27.8015V16.8447C43.2005 16.5598 43.0873 16.2865 42.8858 16.0851C42.6844 15.8836 42.4112 15.7705 42.1263 15.7705H29.8223C29.5369 15.7705 29.263 15.8834 29.0607 16.0847C28.8583 16.286 28.7438 16.5592 28.7423 16.8447V27.8015C28.7423 28.3938 29.23 28.8757 29.8223 28.8815ZM64.04 44.6462H76.3382C76.6236 44.6462 76.8974 44.5332 77.0998 44.3319C77.3022 44.1306 77.4167 43.8574 77.4182 43.572V32.6151C77.4182 32.3287 77.3044 32.054 77.1019 31.8514C76.8993 31.6489 76.6246 31.5351 76.3382 31.5351H64.04C63.7551 31.5351 63.4819 31.6483 63.2804 31.8497C63.079 32.0512 62.9658 32.3244 62.9658 32.6093V43.572C62.9658 44.1642 63.4419 44.6462 64.04 44.6462ZM47.027 44.6462H59.3367C59.6206 44.6447 59.8924 44.5308 60.0926 44.3295C60.2928 44.1282 60.4051 43.8559 60.4051 43.572V32.6151C60.4059 32.474 60.3789 32.3342 60.3256 32.2036C60.2723 32.073 60.1938 31.9541 60.0946 31.8538C59.9954 31.7535 59.8774 31.6738 59.7474 31.6191C59.6173 31.5644 59.4778 31.5359 59.3367 31.5351H47.027C46.7431 31.5366 46.4713 31.6505 46.2711 31.8518C46.0709 32.0531 45.9586 32.3254 45.9586 32.6093V43.572C45.9586 44.1642 46.4405 44.6462 47.0328 44.6462M29.8223 44.6462H42.1263C42.4112 44.6462 42.6844 44.533 42.8858 44.3316C43.0873 44.1301 43.2005 43.8569 43.2005 43.572V32.6151C43.2012 32.474 43.1742 32.3342 43.1209 32.2036C43.0677 32.073 42.9892 31.9541 42.89 31.8538C42.7907 31.7535 42.6728 31.6738 42.5427 31.6191C42.4127 31.5644 42.2731 31.5359 42.1321 31.5351H29.8223C29.5359 31.5351 29.2612 31.6489 29.0586 31.8514C28.8561 32.054 28.7423 32.3287 28.7423 32.6151V43.572C28.7423 44.1642 29.23 44.6462 29.8223 44.6462ZM12.8673 44.6462H25.1771C25.461 44.6447 25.7327 44.5308 25.9329 44.3295C26.1331 44.1282 26.2455 43.8559 26.2455 43.572V32.6151C26.2463 32.474 26.2192 32.3342 26.1659 32.2036C26.1127 32.073 26.0342 31.9541 25.935 31.8538C25.8358 31.7535 25.7178 31.6738 25.5877 31.6191C25.4577 31.5644 25.3182 31.5359 25.1771 31.5351H12.8673C12.5834 31.5366 12.3117 31.6505 12.1115 31.8518C11.9113 32.0531 11.7989 32.3254 11.7989 32.6093V43.572C11.7989 44.1642 12.2692 44.6462 12.8673 44.6462ZM137.98 37.7481C137.603 37.4519 134.078 34.7868 126.634 34.7868C124.672 34.7926 122.709 34.9609 120.77 35.2919C119.33 25.4209 111.171 20.6015 110.806 20.3924L108.808 19.2369L107.496 21.1357C105.847 23.6789 104.651 26.4893 103.942 29.439C102.607 35.0713 103.42 40.3668 106.282 44.8901C102.827 46.8178 97.2822 47.2881 96.1558 47.3288H4.36078C3.20827 47.3303 2.10324 47.788 1.2872 48.6019C0.471171 49.4157 0.0105082 50.5196 0.00590536 51.6721C-0.101621 59.7131 1.26008 67.7062 4.024 75.2581C7.18855 83.5498 11.8918 89.6582 18.0177 93.3976C24.8693 97.5957 36.0178 99.9996 48.647 99.9996C54.3538 100.017 60.0497 99.4999 65.66 98.455C73.4572 97.0227 80.9601 94.2967 87.8583 90.3898C93.5447 87.0983 98.6622 82.9102 103.013 77.9871C110.283 69.7535 114.615 60.585 117.837 52.4385H119.12C127.087 52.4385 131.982 49.2507 134.682 46.5798C136.476 44.8785 137.875 42.8055 138.787 40.5062L139.356 38.8339L137.98 37.7481Z" fill="#328267"/>
</svg>
