<svg width="100" height="100" viewBox="0 0 100 100" fill="none" xmlns="http://www.w3.org/2000/svg">
<g clip-path="url(#clip0_16_48)">
<path d="M100 77.4495C98.5446 78 96.9381 77.9988 95.4835 77.4461C94.0289 76.8935 92.8269 75.8276 92.1042 74.4495L77.7292 54.5704L75.6459 51.7912L58.9667 74.4745C58.2875 75.7947 57.1507 76.8224 55.7688 77.3653C54.3869 77.9082 52.8546 77.9293 51.4584 77.4245L72.95 48.5912L52.9584 22.5454C54.3959 22.0273 55.9679 22.0205 57.4099 22.5259C58.8518 23.0314 60.0756 24.0182 60.875 25.3204L75.775 45.4454L90.7584 25.4037C91.4429 24.107 92.58 23.107 93.9535 22.5938C95.3271 22.0806 96.8413 22.0901 98.2084 22.6204L90.45 32.9162L79.9417 46.5954C79.6499 46.8557 79.4164 47.1747 79.2565 47.5316C79.0966 47.8885 79.0139 48.2751 79.0139 48.6662C79.0139 49.0573 79.0966 49.4439 79.2565 49.8008C79.4164 50.1577 79.6499 50.4767 79.9417 50.737L99.9584 77.4537L100 77.4495ZM0.00838332 48.2329L1.75838 39.587C6.56672 22.4912 26.1667 15.3787 39.65 25.962C47.5459 32.1662 49.5167 40.9495 49.1292 50.8495H4.65005C3.92922 68.5287 16.6875 79.2037 33 73.7495C35.6445 72.7977 38.0115 71.2047 39.889 69.1133C41.7666 67.022 43.0961 64.4976 43.7584 61.7662C44.6209 58.9912 46.0417 58.5162 48.65 59.3162C48.2154 62.7011 47.0188 65.9434 45.1503 68.7992C43.2819 71.655 40.7901 74.0498 37.8625 75.8037C33.0268 78.4488 27.4785 79.4972 22.011 78.799C16.5435 78.1008 11.4367 75.6917 7.42088 71.9162C3.45017 67.447 1.05037 61.8016 0.58755 55.8412C0.58755 54.862 0.254217 53.9454 0.0292167 53.0662C0.00893344 51.4566 -0.000788988 49.8468 4.99845e-05 48.237L0.00838332 48.2329ZM4.70422 47.0412H44.9292C44.6792 34.2245 36.5917 25.1329 25.8042 25.0495C13.7959 24.8829 5.20422 33.7745 4.67505 46.9829L4.70422 47.0412Z" fill="#328267"/>
</g>
<defs>
<clipPath id="clip0_16_48">
<rect width="100" height="100" fill="white"/>
</clipPath>
</defs>
</svg>
