<svg width="67" height="100" viewBox="0 0 67 100" fill="none" xmlns="http://www.w3.org/2000/svg">
<g clip-path="url(#clip0_16_65)">
<path d="M50.0007 66.6663C59.2055 66.6663 66.6674 59.2044 66.6674 49.9997C66.6674 40.7949 59.2055 33.333 50.0007 33.333C40.796 33.333 33.334 40.7949 33.334 49.9997C33.334 59.2044 40.796 66.6663 50.0007 66.6663Z" fill="#328267"/>
<path fill-rule="evenodd" clip-rule="evenodd" d="M16.6667 100C21.0869 100 25.3262 98.244 28.4518 95.1184C31.5774 91.9928 33.3333 87.7536 33.3333 83.3333V66.6667H16.6667C12.2464 66.6667 8.00716 68.4226 4.88155 71.5482C1.75595 74.6738 0 78.9131 0 83.3333C0 87.7536 1.75595 91.9928 4.88155 95.1184C8.00716 98.244 12.2464 100 16.6667 100ZM16.6667 66.6667H33.3333V33.3333H16.6667C12.2464 33.3333 8.00716 35.0893 4.88155 38.2149C1.75595 41.3405 0 45.5797 0 50C0 54.4203 1.75595 58.6595 4.88155 61.7851C8.00716 64.9107 12.2464 66.6667 16.6667 66.6667ZM16.6667 33.3333H33.3333V0H16.6667C12.2464 0 8.00716 1.75595 4.88155 4.88155C1.75595 8.00716 0 12.2464 0 16.6667C0 21.0869 1.75595 25.3262 4.88155 28.4518C8.00716 31.5774 12.2464 33.3333 16.6667 33.3333ZM50 33.3333H33.3333V0H50C54.4203 0 58.6595 1.75595 61.7851 4.88155C64.9107 8.00716 66.6667 12.2464 66.6667 16.6667C66.6667 21.0869 64.9107 25.3262 61.7851 28.4518C58.6595 31.5774 54.4203 33.3333 50 33.3333Z" fill="#328267"/>
</g>
<defs>
<clipPath id="clip0_16_65">
<rect width="67" height="100" fill="white"/>
</clipPath>
</defs>
</svg>
