<svg width="100" height="100" viewBox="0 0 100 100" fill="none" xmlns="http://www.w3.org/2000/svg">
<g clip-path="url(#clip0_16_57)">
<path d="M98.1071 45.5437L54.4438 1.88666C53.846 1.28853 53.1362 0.814058 52.3549 0.490339C51.5737 0.166619 50.7363 0 49.8906 0C49.045 0 48.2076 0.166619 47.4263 0.490339C46.6451 0.814058 45.9352 1.28853 45.3374 1.88666L36.2748 10.9493L47.775 22.4495C49.1313 21.9864 50.5904 21.914 51.9859 22.2404C53.3814 22.5669 54.657 23.2791 55.6672 24.2958C56.6773 25.3124 57.3813 26.5926 57.6988 27.9902C58.0163 29.3877 57.9344 30.8464 57.4626 32.1997L68.5441 43.2874C70.1836 42.7101 71.9707 42.7084 73.6113 43.2824C75.252 43.8565 76.6482 44.9721 77.5701 46.4456C78.492 47.9191 78.8847 49.6626 78.6835 51.389C78.4822 53.1155 77.6991 54.7219 76.463 55.9439C75.2116 57.2029 73.5619 57.9884 71.7957 58.1662C70.0295 58.3441 68.2563 57.9032 66.7791 56.9188C65.3019 55.9345 64.2122 54.4678 63.6963 52.7693C63.1803 51.0708 63.2701 49.2459 63.9502 47.6062L53.6188 37.2685V64.4753C55.1892 65.2526 56.4457 66.5447 57.179 68.1361C57.9122 69.7276 58.0779 71.5223 57.6483 73.2211C57.2187 74.9198 56.2199 76.4201 54.8184 77.4717C53.4168 78.5234 51.6971 79.0629 49.946 79.0004C48.1949 78.9378 46.5181 78.277 45.1951 77.128C43.8721 75.9791 42.9829 74.4114 42.6756 72.6863C42.3683 70.9612 42.6616 69.1829 43.5065 67.6478C44.3514 66.1127 45.6969 64.9136 47.3187 64.2502V36.7935C46.383 36.4101 45.5324 35.8453 44.816 35.1316C44.0996 34.4179 43.5316 33.5695 43.1447 32.6352C42.7577 31.701 42.5595 30.6993 42.5615 29.6881C42.5634 28.6769 42.7655 27.6761 43.1561 26.7433L31.8247 15.4056L1.88666 45.3437C1.28853 45.9415 0.814058 46.6513 0.490339 47.4326C0.166619 48.2138 0 49.0512 0 49.8969C0 50.7425 0.166619 51.5799 0.490339 52.3612C0.814058 53.1424 1.28853 53.8522 1.88666 54.4501L45.5499 98.1133C46.1477 98.7115 46.8576 99.1859 47.6388 99.5097C48.4201 99.8334 49.2575 100 50.1031 100C50.9488 100 51.7862 99.8334 52.5674 99.5097C53.3487 99.1859 54.0585 98.7115 54.6563 98.1133L98.1133 54.6563C99.3198 53.4481 99.9974 51.8105 99.9974 50.1031C99.9974 48.3957 99.3198 46.7581 98.1133 45.5499" fill="#328267"/>
</g>
<defs>
<clipPath id="clip0_16_57">
<rect width="100" height="100" fill="white"/>
</clipPath>
</defs>
</svg>
