<svg width="74" height="100" viewBox="0 0 74 100" fill="none" xmlns="http://www.w3.org/2000/svg">
<path d="M59.3687 20.4076C59.3687 20.4076 25.1559 28.9608 41.5621 47.8179C46.4139 53.3699 40.3116 58.3718 40.3116 58.3718C40.3116 58.3718 52.5662 52.1195 46.864 44.1165C41.5621 36.7637 37.5606 33.1124 59.3687 20.4076ZM37.0104 26.4099C57.2679 10.4039 46.864 0 46.864 0C51.0656 16.5062 32.0585 21.508 25.206 31.8119C20.5042 38.8145 27.5068 46.3673 36.8603 55.0206C33.309 46.5174 20.7543 39.2147 37.0104 26.4099ZM23.7054 77.3789C8.29963 81.6805 33.1089 90.5338 52.6662 82.1807C50.7655 81.4304 48.9148 80.5301 47.1642 79.4797C40.3616 81.0303 33.359 81.3304 26.4564 80.38C19.904 79.5797 23.7054 77.3789 23.7054 77.3789ZM50.3153 68.9758C41.5621 70.8765 32.5087 71.3267 23.6054 70.2763C17.0529 69.626 21.3545 66.4248 21.3545 66.4248C4.34816 72.0769 30.758 78.4293 54.3668 71.5267C52.9163 70.9765 51.5158 70.0262 50.3153 68.9758ZM67.4217 85.4819C67.4217 85.4819 70.2728 87.8328 64.3706 89.6335C52.9663 93.0348 17.203 94.0852 7.29926 89.7836C3.74793 88.233 10.4504 86.0822 12.5512 85.632C13.7017 85.3319 14.8521 85.2319 16.0025 85.2319C12.051 82.5308 -9.65708 90.7339 5.04842 93.0348C44.9133 99.5372 77.7756 90.0336 67.4217 85.4819ZM53.7166 61.1729C55.1671 60.2225 56.7177 59.4222 58.3183 58.7219C58.3183 58.7219 50.7655 60.0224 43.2127 60.7227C35.2097 61.523 27.1567 61.623 19.1537 61.0228C7.3993 59.4722 25.6061 55.0206 25.6061 55.0206C20.104 55.0206 14.702 56.321 9.8002 58.772C-0.453636 63.7738 35.3097 66.0247 53.7166 61.1729ZM58.2183 73.2774C58.1183 73.4775 58.0182 73.6275 57.8181 73.7776C82.8775 67.2251 73.6741 50.5689 61.6696 54.7204C61.0193 55.0206 60.4691 55.4207 60.119 55.9709C60.8193 55.7208 61.5195 55.5207 62.2698 55.3707C68.272 54.1702 76.8753 63.5237 58.2183 73.2774ZM58.8685 96.336C43.8129 98.937 28.4071 99.137 13.2515 97.0363C13.2515 97.0363 15.5523 98.937 27.3067 99.6873C45.3135 100.838 72.9738 99.037 73.624 90.5338C73.7741 90.5839 72.4736 93.785 58.8685 96.336Z" fill="#328267"/>
</svg>
