<svg width="99" height="100" viewBox="0 0 99 100" fill="none" xmlns="http://www.w3.org/2000/svg">
<path d="M0.136292 0H98.9168V100H0.136292V0ZM90.825 76.15C90.1047 71.5875 87.1701 67.7542 78.4651 64.1792C75.4358 62.7417 72.0691 61.7417 71.0689 59.4292C70.6944 58.0542 70.6367 57.3042 70.8796 56.4917C71.497 53.8 74.6456 52.9917 77.1151 53.7417C78.7203 54.2417 80.202 55.4917 81.1322 57.4917C85.388 54.675 85.388 54.675 88.3555 52.8042C87.2442 51.0542 86.6927 50.3 85.9436 49.5542C83.3506 46.6167 79.8974 45.1167 74.2793 45.2458L71.3776 45.6167C68.5953 46.3042 65.9447 47.8042 64.3395 49.8042C59.6474 55.1833 61.0015 64.5583 66.6814 68.4333C72.2995 72.6833 80.5148 73.6167 81.5643 77.6208C82.5521 82.4958 77.9835 84.0583 73.4726 83.4958C70.1346 82.7458 68.2866 81.0542 66.2492 77.9292L58.7172 82.3083C59.5816 84.3083 60.5694 85.1792 62.0511 86.9292C69.2127 94.2458 87.1166 93.8708 90.3311 82.7458C90.4505 82.3708 91.3189 79.8083 90.6357 75.8708L90.825 76.15V76.15ZM53.8523 45.9625H44.5999C44.5999 54.0375 44.5628 62.0625 44.5628 70.15C44.5628 75.2833 44.8221 79.9958 43.9948 81.4458C42.6366 84.3167 39.1381 83.95 37.5494 83.4458C35.9195 82.6292 35.0922 81.5042 34.1332 79.8833C33.8739 79.4458 33.6805 79.0667 33.6105 79.0667L26.0991 83.7542C27.3544 86.3792 29.186 88.6375 31.5485 90.075C35.0675 92.2 39.7967 92.8875 44.748 91.7625C47.9707 90.8208 50.7489 88.8833 52.2018 85.8833C54.3009 82.0083 53.8564 77.2583 53.8358 71.9417C53.8852 63.3833 53.8358 54.8208 53.8358 46.1958L53.8523 45.9625V45.9625Z" fill="#328267"/>
</svg>
