<svg width="47" height="100" viewBox="0 0 47 100" fill="none" xmlns="http://www.w3.org/2000/svg">
<g clip-path="url(#clip0_16_61)">
<path d="M31.911 11.1056C27.7089 6.10305 24.0571 1.10055 23.3568 0H23.2067C22.5063 1.05053 18.8545 6.10305 14.6524 11.1056C-21.3656 57.0785 20.3553 88.0941 20.3553 88.0941L20.7054 88.3442C21.0056 93.0966 21.806 100 21.806 100H24.9075C24.9075 100 25.6579 93.1466 25.9581 88.3442L26.3082 88.044C26.3082 88.044 67.929 57.0785 31.911 11.1056ZM23.2067 87.3937C22.3299 86.6735 21.5257 85.8692 20.8055 84.9925L23.2067 34.9675L25.4578 84.9925C24.7829 85.8605 24.0294 86.6643 23.2067 87.3937Z" fill="#328267"/>
</g>
<defs>
<clipPath id="clip0_16_61">
<rect width="47" height="100" fill="white"/>
</clipPath>
</defs>
</svg>
