<svg width="102" height="100" viewBox="0 0 102 100" fill="none" xmlns="http://www.w3.org/2000/svg">
<path d="M100.582 97.5662L98.4644 95.5491C97.4549 94.2121 96.3265 92.9692 95.0929 91.8358L95.072 91.8191C93.8273 90.6883 92.534 89.6131 91.192 88.5934C90.1168 87.8544 88.6387 86.9639 86.7578 85.922C85.2315 85.2445 84.015 84.0191 83.3487 82.4879L83.332 82.4463L83.132 82.3462C84.0155 82.2587 84.824 82.0962 85.5992 81.867L85.5033 81.892L87.8788 81.2377C88.8624 80.9293 90.0001 80.7292 91.1795 80.6834H91.2045C92.4465 80.6334 93.6176 80.4333 94.7345 80.1041L94.6303 80.1291C95.1693 79.9957 95.7236 79.8443 96.2931 79.6748C96.8627 79.5054 97.3503 79.3539 97.7559 79.2206V78.5163C97.3531 77.9133 96.8655 77.2243 96.2931 76.4491C95.7623 75.7239 95.142 75.0685 94.4469 74.4987L94.4261 74.4821C92.6785 72.9373 90.8684 71.4425 88.9957 69.9978C87.2402 68.6338 85.4166 67.3596 83.5321 66.1803L83.2487 66.0136C82.1618 65.3031 81.0107 64.6962 79.8104 64.2007L79.6687 64.1507C78.424 63.645 77.1974 63.0907 75.9888 62.4878C75.5534 62.2746 75.0966 62.1084 74.626 61.9919L74.5802 61.9836C74.1101 61.89 73.6847 61.6421 73.3716 61.2792L73.3674 61.2751C72.7762 60.4902 72.2796 59.6383 71.8879 58.737L71.8546 58.6537C71.4517 57.7118 71.0155 56.8075 70.546 55.9406C69.5374 53.9902 68.5622 52.0078 67.6203 49.9935C66.6785 47.9792 65.7741 45.9621 64.9073 43.9422C64.3044 42.5975 63.7501 41.2541 63.2444 39.9122C62.733 38.5443 62.0895 37.2295 61.3232 35.9863L61.3773 36.0822C59.7166 33.2349 57.8633 30.5043 55.8303 27.9096L55.947 28.068C54.0868 25.7119 52.0544 23.497 49.8666 21.4416L49.8332 21.4124C47.6816 19.3937 45.4104 17.5066 43.0318 15.7612L42.8275 15.6153C40.3381 13.8066 37.6153 12.0257 34.6591 10.2725C33.4025 9.53961 32.0486 8.98819 30.6374 8.63468L30.5291 8.60967L25.8906 7.45109L23.2692 7.25105C22.3968 7.18437 21.523 7.15103 20.6478 7.15103C20.0576 6.84214 19.5145 6.45061 19.035 5.98828C18.5714 5.54736 18.0801 5.13671 17.5638 4.75885L17.5221 4.72968C14.815 3.16752 11.9637 1.86959 9.00783 0.853851L8.65359 0.745495C7.91846 0.324912 7.09814 0.0750722 6.25337 0.0144739C5.4086 -0.0461244 4.56102 0.0840709 3.77338 0.39542L3.81089 0.382917C3.03529 0.687073 2.33628 1.15847 1.76361 1.76355C1.19095 2.36863 0.758717 3.09251 0.497683 3.88366L0.48518 3.92534C0.0429307 4.98736 -0.100753 6.15002 0.0696499 7.28775C0.240052 8.42548 0.718064 9.49504 1.45205 10.3809L1.44372 10.3684C2.95515 12.3827 4.11373 13.9664 4.91946 15.1194C5.52237 15.9279 6.14472 16.7684 6.78652 17.6408C7.37415 18.4243 7.89509 19.3203 8.31602 20.2663L8.34936 20.3538C8.58274 20.8498 8.78695 21.4416 8.93698 22.05L8.94949 22.1167C9.08285 22.6891 9.25094 23.3114 9.45376 23.9838C10.0567 25.5286 10.6276 27.1122 11.1666 28.7348C11.7543 30.506 12.4044 32.0063 13.1587 33.4358L13.0795 33.2691C13.4824 34.0081 13.8867 34.7305 14.2923 35.4362C14.6979 36.1419 15.1341 36.831 15.6009 37.5033C15.8656 37.9027 16.207 38.2455 16.6053 38.5119L16.6178 38.5202C16.8265 38.6699 16.9984 38.8652 17.1204 39.0912C17.2424 39.3172 17.3114 39.568 17.3221 39.8247C16.8304 40.5551 16.5203 41.3965 16.4177 42.271L16.4136 42.296C16.2828 43.2777 16.0695 44.2466 15.7759 45.1925L15.8093 45.0674C14.8289 48.0689 14.3351 51.2078 14.3465 54.3653C14.3465 55.4405 14.4006 56.4991 14.5132 57.5451L14.5007 57.4159C14.7507 61.4084 15.9551 65.0759 17.8847 68.2516L17.8264 68.1474C18.6474 69.3768 19.5267 70.4479 20.4978 71.4272C21.0619 72.0618 21.8218 72.4897 22.6569 72.643C23.492 72.7962 24.3544 72.6661 25.1071 72.2733L25.0863 72.2816C25.8084 72.027 26.4386 71.5634 26.8965 70.9496C27.3544 70.3359 27.6193 69.5998 27.6576 68.835V68.8267C27.8577 66.8513 28.1577 65.0842 28.5703 63.3589L28.5162 63.6381C28.6218 63.357 28.6754 63.059 28.6745 62.7587L28.6662 62.5712V62.5795C28.6329 62.2767 28.8176 61.9905 29.2205 61.721V61.921C29.6233 62.8629 30.0429 63.8034 30.4791 64.7425C30.9153 65.6816 31.3682 66.622 31.8377 67.5639C33.0671 69.4351 34.3716 71.0688 35.8052 72.5733L35.7927 72.5608C37.2189 74.1009 38.7919 75.4981 40.4896 76.7325L40.5812 76.7951C41.4648 77.4702 42.2399 78.1995 42.9401 78.9955L42.9567 79.0122C43.6152 79.7874 44.4029 80.425 45.2906 80.9043L45.3322 80.9251V80.8251H45.5323C45.3742 80.4711 45.1127 80.1733 44.7821 79.9707L44.7738 79.9666C44.468 79.798 44.1742 79.6086 43.8944 79.3998L43.9153 79.4123C43.3124 78.8094 42.69 78.137 42.0482 77.3952C41.4064 76.6534 40.8188 75.9476 40.2853 75.2781C38.8739 73.3276 37.5278 71.2897 36.247 69.1643C34.9662 67.0388 33.7562 64.8786 32.617 62.6837C32.078 61.6085 31.5571 60.4999 31.0542 59.358C30.5513 58.2161 30.0637 57.1075 29.5914 56.0323C29.3776 55.5953 29.2421 55.1242 29.1913 54.6403V54.6195C29.1801 54.3906 29.1096 54.1685 28.9869 53.9749C28.8642 53.7814 28.6934 53.6229 28.4912 53.5151L28.4828 53.5109C28.0057 54.3312 27.4351 55.0934 26.7825 55.7822L26.7866 55.7781C26.1173 56.4834 25.5783 57.3018 25.1946 58.1953L25.1738 58.2494C24.55 59.7885 24.1446 61.4073 23.9694 63.0588L23.961 63.138C23.761 64.9189 23.5595 66.7499 23.3567 68.6308L23.1567 68.7308L23.0567 68.8309C22.535 68.7262 22.0433 68.5061 21.6178 68.1866C21.1924 67.8671 20.8438 67.4564 20.5978 66.9846L20.5895 66.9638C20.0838 65.9886 19.6309 65.03 19.2308 64.0882C18.1391 61.2318 17.5429 58.21 17.468 55.1529V55.1154C17.2515 51.8489 17.656 48.571 18.6599 45.455L18.6099 45.6384C18.8099 44.8994 19.2461 43.6546 19.9185 41.9043C20.5909 40.1539 20.7256 38.9439 20.3227 38.2743C20.124 37.6116 19.741 37.019 19.2183 36.5656L19.2142 36.5615C18.716 36.13 18.2495 35.6635 17.818 35.1653L17.8055 35.1487C17.336 34.4707 16.8831 33.7484 16.4469 32.9815C16.0107 32.2147 15.6245 31.459 15.2883 30.7144C14.5123 28.8781 13.8525 26.9948 13.3129 25.0757L13.2212 24.7048C12.6283 22.5604 11.8674 20.4659 10.9457 18.4409L11.0541 18.7077C10.6229 17.7181 10.0774 16.7823 9.42875 15.9196L9.45376 15.9529C8.77584 15.0472 8.17015 14.19 7.63671 13.3815C6.95878 12.5091 6.28642 11.6687 5.61961 10.8602C4.92476 10.0186 4.32905 9.09983 3.84423 8.12207L3.80672 8.03872C3.59349 7.60335 3.42724 7.14651 3.31078 6.67593L3.30245 6.63008C3.23085 6.39333 3.21203 6.14375 3.24731 5.89894C3.28259 5.65412 3.37112 5.42002 3.50666 5.21311L3.50249 5.22145C3.54705 4.99609 3.65223 4.78716 3.80672 4.61715C3.97545 4.46635 4.18105 4.36283 4.40268 4.31709H4.41102C4.73983 4.10384 5.11783 3.97845 5.5089 3.95292C5.89998 3.92738 6.29108 4.00254 6.64483 4.17123L6.63232 4.16706C7.54502 4.42545 8.28268 4.68383 9.00366 4.97973L8.85363 4.92555C10.1289 5.46456 11.3055 5.9855 12.3836 6.48839C13.6255 7.08018 14.684 7.70531 15.6843 8.40129L15.6092 8.35128C16.1482 8.68747 16.6859 9.05699 17.2221 9.45985C17.7583 9.86272 18.3293 10.267 18.9349 10.6726H20.3478C21.423 10.6726 22.5649 10.724 23.7735 10.8268C24.9946 10.9227 26.124 11.1519 27.1992 11.5103L27.0992 11.4811C29.1038 12.0771 30.825 12.7814 32.4587 13.6274L32.2878 13.5482C33.9354 14.3873 35.4982 15.2778 36.9763 16.2196C39.431 17.7491 41.5523 19.3161 43.5485 21.029L43.4777 20.9706C45.5615 22.7544 47.4535 24.5839 49.2289 26.5177L49.2706 26.5677C51.0043 28.4597 52.6588 30.5143 54.1716 32.669L54.3008 32.8648C55.6928 34.8319 57.0973 37.1074 58.36 39.4663L58.5351 39.8205C58.9072 40.5437 59.2329 41.2898 59.5103 42.0543L59.5561 42.1918C59.8256 42.9642 60.1271 43.7561 60.4605 44.5673C61.1995 46.2483 61.9914 47.9445 62.836 49.6559C63.6806 51.3674 64.4724 53.0317 65.2115 54.6487L67.4286 59.4872C68.208 61.1792 69.079 62.6379 70.0917 63.984L70.0459 63.9215C70.8919 64.8258 72.0213 65.4593 73.2882 65.6802L73.3216 65.6843C74.8552 66.0678 76.1472 66.5012 77.3974 67.0138L77.2015 66.9429C77.7975 67.2138 78.5643 67.5014 79.352 67.7556L79.5187 67.8015C80.4022 68.0724 81.1691 68.4308 81.8734 68.8809L81.8359 68.86C83.1987 69.6227 84.3531 70.3728 85.4533 71.1897L85.3658 71.1272C86.5077 71.9662 87.6496 72.7581 88.7915 73.5027C89.3305 73.9055 90.2349 74.4932 91.5046 75.2656C92.7743 76.0379 93.4467 76.7603 93.5217 77.4327C90.9683 77.3442 88.412 77.4655 85.8784 77.7953L86.1118 77.7703C83.9959 78.045 81.9242 78.5913 79.948 79.3956L80.1147 79.3373C79.5909 79.5594 79.0502 79.7391 78.4977 79.8749L78.4185 79.8915C78.1314 79.9328 77.8664 80.0688 77.6655 80.278C77.4647 80.4872 77.3395 80.7575 77.3099 81.046C77.5641 81.3627 77.7683 81.7336 77.9059 82.1337L77.9142 82.1587C78.0559 82.5838 78.2268 82.9505 78.4351 83.2923L78.4226 83.2673C78.9186 84.1466 79.452 84.9051 80.0522 85.6053L80.0355 85.5844C80.6231 86.3096 81.2858 86.9389 82.0192 87.4765L82.0484 87.4973C82.7263 88.0363 83.432 88.5906 84.1655 89.1602C84.8365 89.6853 85.595 90.2021 86.3827 90.6688L86.4827 90.723C87.6663 91.4482 89.0416 92.14 90.4752 92.7193L90.6669 92.786C92.2256 93.4111 93.5634 94.1363 94.8053 94.9989L94.7386 94.9531C95.5471 95.4226 96.3529 95.9436 97.1558 96.5159C97.9588 97.0883 98.7311 97.6426 99.473 98.1788C99.7772 98.4788 100.044 98.8123 100.269 99.1748L100.281 99.1957C100.666 99.639 101.2 99.9253 101.782 100H101.794V99.8C101.426 99.5211 101.157 99.1309 101.027 98.6872L101.023 98.6706C100.928 98.2693 100.77 97.8854 100.557 97.5328L100.565 97.5495L100.582 97.5662ZM23.165 17.5282C22.626 17.5282 22.1217 17.5449 21.6522 17.5783C21.1941 17.6077 20.7417 17.696 20.3061 17.8408L20.3436 17.8283V17.9283H20.5436C20.8131 18.3312 21.1521 18.7841 21.5605 19.287C21.9689 19.7898 22.3385 20.2774 22.6691 20.7498L24.2819 24.0755L24.482 23.9755C24.9513 23.6376 25.3154 23.1738 25.5322 22.6377L25.5405 22.6168C25.7572 22.0375 25.8823 21.3624 25.8823 20.6622L25.8781 20.4372V20.4497C25.6891 20.2659 25.5364 20.0482 25.428 19.8079L25.4238 19.7954L25.0863 19.0369C24.8701 18.6917 24.561 18.4143 24.1944 18.2367L24.1819 18.2326C23.8074 18.0537 23.4641 17.8159 23.165 17.5282Z" fill="#328267"/>
</svg>
