<svg width="100" height="100" viewBox="0 0 100 100" fill="none" xmlns="http://www.w3.org/2000/svg">
<g clip-path="url(#clip0_15_42)">
<path d="M58.8793 0.196289C58.1585 0.196289 57.4877 0.350456 56.8668 0.558789C58.1835 1.43379 58.9085 2.60046 59.2668 3.91712C59.296 4.09629 59.346 4.22546 59.371 4.40462C59.4019 4.55841 59.42 4.7145 59.4252 4.87129C59.5252 7.14212 58.8293 7.42962 58.3418 8.77129C57.5918 10.5005 57.8002 12.3588 58.7002 13.8546C58.7826 14.0552 58.8859 14.2465 59.0085 14.4255C58.0293 7.89212 63.4793 6.91296 64.4835 4.87129C64.5627 3.08796 63.0918 1.90046 61.9293 1.07546C61.0158 0.50141 59.9583 0.198021 58.8793 0.200456V0.196289ZM67.0918 1.66712C66.9918 2.26296 67.0668 2.10879 67.0418 2.41712C67.0168 2.62546 67.0168 2.88379 66.9918 3.08796C66.9377 3.29629 66.8877 3.50462 66.8085 3.70879C66.7585 3.91712 66.6835 4.12546 66.6002 4.32962L66.321 4.92129C66.2377 5.02546 66.1918 5.12962 66.1127 5.23379L65.9585 5.46296C65.8356 5.63977 65.7063 5.81211 65.571 5.97962C65.4168 6.13796 65.2877 6.31712 65.1043 6.44629V6.47129C64.9502 6.60046 64.796 6.75462 64.6127 6.88796C64.071 7.30046 63.4543 7.60879 62.8835 7.99629C62.7043 8.12129 62.521 8.22962 62.3668 8.38379C62.1915 8.50708 62.027 8.64508 61.8752 8.79629C61.696 8.95046 61.5668 9.10462 61.4127 9.28796C61.2835 9.44212 61.1293 9.62129 61.0252 9.80462C60.8955 9.97909 60.7745 10.1599 60.6627 10.3463C60.5585 10.5546 60.4835 10.7338 60.3793 10.938C60.3002 11.1463 60.2252 11.3255 60.171 11.5338C60.1027 11.7466 60.0429 11.962 59.9918 12.1796C59.9668 12.2838 59.9668 12.413 59.9418 12.513C59.9127 12.6171 59.9127 12.7213 59.8877 12.8255C59.8877 13.0338 59.8627 13.263 59.8627 13.4713C59.8627 13.6255 59.8627 13.7796 59.8877 13.9338C59.8877 14.1421 59.9127 14.3505 59.9668 14.5796C59.9918 14.788 60.0418 14.9963 60.0918 15.2046C60.1752 15.4088 60.2252 15.613 60.3002 15.8213C60.3543 15.9463 60.4293 16.0796 60.4835 16.1838L54.5418 13.8838C53.5377 13.6005 52.5543 13.3421 51.546 13.1088L49.921 12.7213C48.371 12.413 46.796 12.1796 45.221 12.0255C45.1668 12.0255 45.1418 12.0005 45.0918 12.0005C42.4304 11.7339 39.7509 11.699 37.0835 11.8963C35.5085 12.0005 33.9335 12.2046 32.3585 12.463C31.188 12.6646 30.0248 12.9064 28.871 13.188L27.7085 13.4963C27.3252 13.6505 26.9585 13.8296 26.6002 13.988L25.746 14.3755C25.696 14.4005 25.646 14.4005 25.621 14.4255C25.3585 14.5546 25.1293 14.6588 24.896 14.788C24.5605 14.9359 24.2323 15.1 23.9127 15.2796C23.7335 15.3546 23.5543 15.4588 23.396 15.538C23.322 15.5839 23.2455 15.6256 23.1668 15.663C22.9335 15.7963 22.7002 15.9255 22.4918 16.0546C22.2792 16.1722 22.0733 16.3015 21.8752 16.4421C21.6918 16.5671 21.5127 16.6713 21.3585 16.8005C21.3335 16.8296 21.3043 16.8296 21.2793 16.8546C21.1252 16.9588 20.946 17.088 20.7877 17.2171L20.7377 17.2671L20.3502 17.5755C20.3002 17.6046 20.246 17.6546 20.196 17.6796C20.0668 17.7838 19.9377 17.913 19.8085 18.013C19.7835 18.0671 19.7293 18.0963 19.7043 18.1171C19.5502 18.2755 19.396 18.4046 19.2418 18.5588C19.2127 18.5588 19.2127 18.5838 19.1877 18.6088C19.0271 18.7491 18.8728 18.8965 18.7252 19.0505C18.696 19.0755 18.696 19.1005 18.671 19.1005C18.5354 19.2332 18.4061 19.3722 18.2835 19.5171C18.2335 19.5671 18.1585 19.6171 18.1043 19.6671C17.966 19.8308 17.8185 19.9866 17.6627 20.1338C17.6377 20.1838 17.5877 20.213 17.5627 20.2588C17.3543 20.4671 17.1752 20.6755 16.9668 20.8838L16.8918 20.9588C16.4752 21.4005 16.0377 21.838 15.571 22.2255C15.1085 22.6421 14.6168 23.0255 14.1252 23.363C13.138 24.0681 12.0726 24.6567 10.9502 25.1171C10.4085 25.3505 9.83766 25.5588 9.27099 25.738C8.18766 25.9713 7.07516 26.4088 6.12099 26.488C5.91266 26.488 5.68349 26.538 5.47516 26.563L4.82932 26.7171L4.20849 26.9505C4.00016 27.0296 3.79599 27.1338 3.59182 27.2338C3.40849 27.363 3.20432 27.4671 3.02099 27.5963C2.83715 27.7294 2.66437 27.8771 2.50432 28.038C2.32516 28.163 2.14182 28.3463 1.98766 28.5005C1.83349 28.6796 1.67932 28.8338 1.55016 29.0171C1.42099 29.2255 1.26682 29.4046 1.16266 29.613C1.02694 29.8007 0.905753 29.9985 0.800156 30.2046C0.695989 30.438 0.591823 30.6463 0.516823 30.8755C0.437656 31.0838 0.362656 31.3171 0.283489 31.5463C0.233489 31.7546 0.179322 31.963 0.158489 32.1713C0.158489 32.1921 0.129322 32.2213 0.129322 32.2463C0.0793225 32.4796 0.0793225 32.788 0.0501558 32.9421C0.0251558 33.1255 0.000155809 33.2755 0.000155809 33.4588C-0.00463802 33.9081 0.101255 34.3517 0.308489 34.7505V34.7755C0.387656 34.9296 0.491823 35.088 0.595989 35.2421C0.695989 35.3963 0.804323 35.5505 0.929323 35.7046C1.05849 35.8338 1.21266 35.9921 1.37099 36.1213C1.52155 36.2723 1.68463 36.4103 1.85849 36.5338C2.47932 37.0755 2.63349 37.2546 3.43349 37.6671C3.56266 37.7463 3.69182 37.7963 3.85016 37.8755C3.87516 37.8755 3.90016 37.9005 3.92516 37.9005C3.92516 37.9546 3.92516 37.9796 3.95016 38.0296C4.01047 38.4555 4.12241 38.8725 4.28349 39.2713C4.36682 39.4255 4.41682 39.5796 4.49182 39.7338C4.52099 39.788 4.54599 39.838 4.57516 39.863C4.67516 40.0713 4.77932 40.2505 4.87932 40.4338L5.26682 40.9755C5.39599 41.1296 5.55432 41.3088 5.70849 41.4671C5.86266 41.6213 6.01682 41.7505 6.20016 41.9046C6.20016 41.9046 6.22516 41.9296 6.25016 41.9296C6.40432 42.0588 6.55849 42.188 6.71682 42.2921C6.8965 42.4182 7.086 42.5297 7.28349 42.6255C7.46266 42.7296 7.67099 42.8338 7.87516 42.913C8.04165 42.9881 8.21457 43.048 8.39182 43.0921C8.42099 43.1171 8.44599 43.1171 8.49599 43.1421C8.60016 43.1713 8.72932 43.1963 8.82932 43.2213C8.75432 44.6171 8.72932 45.9296 8.93766 46.3963C9.16682 46.913 10.3043 45.338 11.4377 43.5296C11.2877 45.313 11.1835 47.4046 11.4377 48.0255C11.7252 48.6713 13.271 46.6546 14.6168 44.4338C32.9293 40.2005 49.6377 52.8505 51.3918 70.7255C51.0585 67.9338 47.621 66.3879 46.046 66.7754C45.271 68.6838 43.9543 71.1379 41.8377 72.6629C42.0168 70.9546 41.9418 69.2046 41.5793 67.4963C41.0009 69.8742 39.9071 72.0961 38.3752 74.0046C35.9252 74.1838 33.471 72.9963 32.1793 71.2129C32.0752 71.1379 32.0502 70.9838 31.971 70.8796C31.896 70.7004 31.8168 70.5171 31.7627 70.338C31.6877 70.165 31.6359 69.9828 31.6085 69.7963C31.5835 69.6129 31.5835 69.4338 31.5835 69.2255V68.8379C31.6143 68.6547 31.6575 68.4737 31.7127 68.2963C31.7668 68.1171 31.8168 67.9379 31.896 67.7546C31.996 67.5754 32.0752 67.3921 32.2043 67.213C32.6418 65.9713 32.6418 64.963 31.8418 64.3713C31.6865 64.2699 31.5218 64.1834 31.3502 64.113C31.2502 64.088 31.121 64.038 31.0168 64.0088L30.8085 63.9338C30.6316 63.8765 30.4505 63.8333 30.2668 63.8046C30.0908 63.7531 29.9085 63.7265 29.7252 63.7255C29.5376 63.696 29.3483 63.6793 29.1585 63.6755C29.0293 63.6755 28.9002 63.7005 28.771 63.7005C28.5779 63.6994 28.3857 63.726 28.2002 63.7796C28.021 63.8046 27.8418 63.8296 27.6585 63.8796C27.4742 63.9291 27.2933 63.9903 27.1168 64.063C26.9377 64.138 26.7835 64.2171 26.6002 64.2963C26.446 64.3713 26.2918 64.4755 26.1085 64.5546C20.0918 68.4796 23.6835 77.6713 27.7877 80.3338C26.2377 80.6171 24.6627 80.9505 24.2252 81.288L24.171 81.3379C25.2835 82.0088 26.446 82.5796 27.6585 83.0713C29.3127 83.6129 31.0668 84.1004 31.8418 84.3088V84.3338C33.9815 84.7732 36.1696 84.9301 38.3502 84.8004C49.7918 84.0004 59.1668 75.2963 60.871 63.8296L61.0252 64.5005C61.1043 64.9671 61.2043 65.4588 61.2585 65.9463V65.9713C61.3085 66.2046 61.3335 66.438 61.3627 66.6463V66.7463C61.3877 66.9796 61.4127 67.2129 61.4127 67.4213C61.4377 67.7046 61.4627 67.988 61.4627 68.2713V68.688C61.4627 68.813 61.4918 68.9671 61.4918 69.0963C61.4918 69.2546 61.4627 69.4088 61.4627 69.5629V69.9254C61.4627 70.1046 61.4377 70.2588 61.4377 70.4421C61.4377 70.5463 61.4377 70.6504 61.4127 70.7754C61.4127 70.9588 61.3877 71.1379 61.3877 71.3463C61.3627 71.4213 61.3627 71.5004 61.3627 71.5754L61.2793 72.1713C61.2793 72.2504 61.2793 72.3255 61.2585 72.4046C61.2293 72.663 61.1793 72.8963 61.1543 73.1546V73.2046L61.0002 73.9296V74.0046L60.846 74.7004C60.846 74.7296 60.8168 74.7838 60.8168 74.8046C60.7693 75.0409 60.7095 75.2746 60.6377 75.5046V75.5796C60.5585 75.8379 60.4835 76.0713 60.4293 76.3046C60.4043 76.3296 60.4043 76.3546 60.4043 76.3546L60.171 77.1296C60.071 77.3879 59.9918 77.6213 59.8877 77.8796C59.7835 78.1379 59.7085 78.3963 59.6043 78.6296C59.5002 78.888 59.396 79.1171 59.296 79.3796H59.2668C59.1668 79.6088 59.0585 79.8671 58.9335 80.1005C58.9118 80.1621 58.8853 80.222 58.8543 80.2796C58.8293 80.3046 58.8293 80.3338 58.8043 80.3588C57.0963 83.7781 54.6104 86.7493 51.546 89.0338C51.3377 89.1629 51.1335 89.3213 50.9252 89.4755C50.8752 89.5255 50.8002 89.5504 50.746 89.6004C50.5613 89.737 50.3723 89.8676 50.1793 89.9921L50.2543 90.1463H50.2835L51.3668 89.9921H51.3918C52.0627 89.8879 52.7335 89.7588 53.4043 89.6296C53.5877 89.6046 53.7918 89.5504 53.9752 89.5004L54.3377 89.4213C54.5168 89.3963 54.696 89.3463 54.8793 89.3213C55.0335 89.2671 55.1877 89.2379 55.3418 89.1921C57.9252 88.5671 60.4293 87.7171 62.8335 86.713C58.6828 92.3664 53.1626 96.8715 46.7918 99.8046C49.7668 99.5963 52.7335 99.1088 55.6002 98.2796C65.976 95.229 74.7395 88.2266 80.0043 78.7796C78.941 84.7599 76.5691 90.4312 73.0585 95.3879C75.5615 93.737 77.8742 91.8142 79.9543 89.6546C85.735 83.6196 89.53 75.9599 90.8293 67.7046C91.7043 71.788 91.9627 75.9963 91.5793 80.1504C110.221 54.1463 93.1252 27.1838 85.971 20.0838C85.946 20.0296 85.921 20.0046 85.921 19.9546C85.896 19.9796 85.896 19.9796 85.896 20.0046C85.896 19.9796 85.896 19.9796 85.8668 19.9546C85.8668 20.263 85.8418 20.5713 85.8168 20.8838C85.7452 21.4623 85.6591 22.0388 85.5585 22.613C85.4335 23.1796 85.2752 23.7505 85.121 24.3213C84.9377 24.863 84.7335 25.4296 84.496 25.9713C84.2599 26.5062 84.0028 27.0317 83.7252 27.5463C83.1486 28.5587 82.4835 29.518 81.7377 30.413C81.3502 30.8755 80.9377 31.288 80.521 31.7046C80.2775 31.9273 80.0273 32.1427 79.771 32.3505L79.1793 32.8671C78.7183 33.231 78.2355 33.5663 77.7335 33.8713C77.2399 34.1892 76.7309 34.4826 76.2085 34.7505C75.6668 35.0088 75.1252 35.2421 74.5835 35.4755C73.4802 35.8951 72.3387 36.2063 71.1752 36.4046C70.5793 36.5088 69.9877 36.5588 69.4168 36.613C69.0049 36.6421 68.5922 36.6588 68.1793 36.663C67.5919 36.6548 67.0052 36.6201 66.421 36.5588C65.8311 36.5125 65.245 36.4262 64.6668 36.3005C64.0811 36.1942 63.5034 36.048 62.9377 35.863H62.9085C63.4793 35.8088 64.046 35.7588 64.6168 35.6546C65.7797 35.453 66.9209 35.1419 68.0252 34.7255C68.5918 34.5171 69.1335 34.2588 69.6502 34.0005C70.1918 33.7421 70.6835 33.4588 71.2002 33.1505C71.6918 32.8171 72.1793 32.4796 72.646 32.1171C73.1127 31.7546 73.5502 31.3671 73.9627 30.9546C74.4002 30.5671 74.7877 30.1296 75.1752 29.688C75.5627 29.2255 75.9252 28.7588 76.2585 28.2963C76.3127 28.2171 76.3668 28.113 76.4168 28.038C76.6752 27.6213 76.9335 27.2088 77.1668 26.7963C77.7362 25.7685 78.2023 24.6868 78.5585 23.5671C78.7418 23.0255 78.871 22.4588 79.0002 21.888C79.1043 21.2963 79.2085 20.7296 79.2585 20.1588C79.3085 19.5671 79.3627 18.9713 79.3627 18.4046C79.3627 17.988 79.3335 17.5755 79.3085 17.163C79.257 16.5845 79.1875 16.0079 79.1002 15.4338C78.9997 14.8517 78.8718 14.2746 78.7168 13.7046C78.5335 13.163 78.3543 12.5921 78.146 12.0505C77.9377 11.5088 77.6835 10.9671 77.4252 10.4505C77.1377 9.93379 76.8543 9.41712 76.546 8.92546C76.2162 8.44275 75.8715 7.97031 75.5127 7.50879C75.1252 7.06712 74.7377 6.62546 74.3252 6.18796C74.1078 5.96628 73.8841 5.75091 73.6543 5.54212C72.4877 4.63796 71.2793 3.78796 70.0627 3.01296C69.8958 2.91657 69.7232 2.8303 69.546 2.75462C68.78 2.2856 67.9546 1.91708 67.0918 1.66712Z" fill="url(#paint0_linear_15_42)"/>
</g>
<defs>
<linearGradient id="paint0_linear_15_42" x1="50.0004" y1="0.196289" x2="50.0004" y2="99.8046" gradientUnits="userSpaceOnUse">
<stop stop-color="#328267"/>
<stop offset="1" stop-color="#314740"/>
</linearGradient>
<clipPath id="clip0_15_42">
<rect width="100" height="100" fill="white"/>
</clipPath>
</defs>
</svg>
