<svg width="100" height="100" viewBox="0 0 100 100" fill="none" xmlns="http://www.w3.org/2000/svg">
<path d="M58.9126 0C58.1977 0 57.5325 0.154773 56.9168 0.363925C58.2225 1.24237 58.9415 2.41362 59.2968 3.73546C59.3258 3.91534 59.3753 4.04501 59.4001 4.22488C59.4308 4.37928 59.4488 4.53598 59.4539 4.69338C59.553 6.97315 58.863 7.26178 58.3795 8.60872C57.6358 10.3447 57.8424 12.2103 58.7349 13.712C58.8166 13.9134 58.9191 14.1055 59.0407 14.2851C58.0696 7.72609 63.4743 6.74308 64.4702 4.69338C64.5487 2.90304 63.0901 1.71087 61.9372 0.882624C61.0313 0.306321 59.9825 0.00173907 58.9126 0.00418306V0ZM67.0568 1.47662C66.9576 2.07479 67.032 1.92002 67.0072 2.22957C66.9824 2.43872 66.9824 2.69807 66.9576 2.90304C66.9039 3.11219 66.8543 3.32134 66.7758 3.52631C66.7262 3.73546 66.6519 3.94462 66.5692 4.14959L66.2924 4.74358C66.2097 4.84816 66.1643 4.95273 66.0858 5.05731L65.9329 5.28738C65.811 5.46489 65.6828 5.6379 65.5486 5.80607C65.3957 5.96503 65.2676 6.1449 65.0858 6.27458V6.29967C64.9329 6.42935 64.7801 6.58412 64.5982 6.71798C64.0611 7.1321 63.4495 7.44165 62.8834 7.83067C62.7058 7.95616 62.524 8.06492 62.3711 8.21969C62.1972 8.34347 62.0341 8.48202 61.8835 8.63382C61.7058 8.78859 61.5777 8.94336 61.4248 9.12742C61.2967 9.28219 61.1439 9.46206 61.0406 9.64611C60.9119 9.82127 60.792 10.0028 60.6811 10.1899C60.5778 10.3991 60.5034 10.5789 60.4001 10.7839C60.3216 10.9931 60.2472 11.1729 60.1935 11.3821C60.1257 11.5957 60.0665 11.812 60.0158 12.0305C59.991 12.135 59.991 12.2647 59.9662 12.3651C59.9373 12.4697 59.9373 12.5743 59.9125 12.6788C59.9125 12.888 59.8877 13.118 59.8877 13.3272C59.8877 13.482 59.8877 13.6367 59.9125 13.7915C59.9125 14.0007 59.9373 14.2098 59.991 14.4399C60.0158 14.649 60.0654 14.8582 60.115 15.0673C60.1976 15.2723 60.2472 15.4773 60.3216 15.6864C60.3753 15.8119 60.4497 15.9458 60.5034 16.0504L54.6111 13.7413C53.6153 13.4569 52.6401 13.1975 51.6402 12.9633L50.0287 12.5743C48.4916 12.2647 46.9297 12.0305 45.3677 11.8757C45.314 11.8757 45.2892 11.8506 45.2396 11.8506C42.6004 11.5829 39.9431 11.5479 37.2979 11.746C35.736 11.8506 34.1741 12.0556 32.6121 12.3149C31.4514 12.5174 30.2979 12.7601 29.1536 13.0428L28.0008 13.3523C27.6206 13.5071 27.257 13.6869 26.9017 13.8459L26.0546 14.2349C26.005 14.26 25.9554 14.26 25.9306 14.2851C25.6703 14.4148 25.4431 14.5194 25.2117 14.649C24.879 14.7976 24.5535 14.9623 24.2365 15.1426C24.0588 15.2179 23.8811 15.3225 23.7241 15.402C23.6507 15.4481 23.5749 15.49 23.4969 15.5275C23.2655 15.6613 23.0341 15.791 22.8275 15.9207C22.6166 16.0387 22.4124 16.1686 22.2159 16.3097C22.0341 16.4352 21.8564 16.5398 21.7036 16.6695C21.6788 16.6987 21.6498 16.6987 21.6251 16.7238C21.4722 16.8284 21.2945 16.9581 21.1375 17.0878L21.0879 17.138L20.7036 17.4475C20.654 17.4768 20.6003 17.527 20.5507 17.5521C20.4226 17.6567 20.2945 17.7863 20.1664 17.8867C20.1417 17.9411 20.0879 17.9704 20.0631 17.9913C19.9103 18.1503 19.7574 18.2799 19.6045 18.4347C19.5756 18.4347 19.5756 18.4598 19.5508 18.4849C19.3915 18.6258 19.2385 18.7738 19.0921 18.9283C19.0632 18.9534 19.0632 18.9785 19.0384 18.9785C18.9039 19.1118 18.7757 19.2514 18.6541 19.3968C18.6045 19.447 18.5302 19.4972 18.4764 19.5474C18.3392 19.7117 18.193 19.8682 18.0384 20.0159C18.0137 20.0661 17.9641 20.0954 17.9393 20.1414C17.7327 20.3505 17.555 20.5597 17.3484 20.7688L17.274 20.8441C16.8608 21.2875 16.427 21.7268 15.9642 22.1158C15.5055 22.5341 15.0179 22.9189 14.5303 23.2578C13.5514 23.9657 12.4948 24.5566 11.3817 25.0188C10.8446 25.2531 10.2785 25.4622 9.71652 25.6421C8.64219 25.8764 7.53894 26.3156 6.5927 26.395C6.3861 26.395 6.15884 26.4452 5.95224 26.4703L5.31177 26.6251L4.6961 26.8594C4.48949 26.9388 4.28702 27.0434 4.08455 27.1438C3.90274 27.2735 3.70027 27.3781 3.51846 27.5077C3.33615 27.6413 3.16481 27.7896 3.00609 27.9511C2.82841 28.0766 2.6466 28.2607 2.49372 28.4155C2.34083 28.5953 2.18795 28.7501 2.05986 28.9342C1.93176 29.1433 1.77888 29.3232 1.67558 29.5323C1.54099 29.7208 1.42081 29.9194 1.31609 30.1263C1.21279 30.3606 1.10949 30.5697 1.03511 30.7998C0.956601 31.009 0.882225 31.2432 0.803716 31.4733C0.754132 31.6824 0.700415 31.8916 0.679755 32.1007C0.679755 32.1216 0.650831 32.1509 0.650831 32.176C0.601246 32.4103 0.601246 32.7198 0.572322 32.8746C0.54753 33.0587 0.522738 33.2092 0.522738 33.3933C0.517984 33.8444 0.622997 34.2897 0.828508 34.69V34.7151C0.907017 34.8699 1.01032 35.0289 1.11362 35.1836C1.21279 35.3384 1.32022 35.4932 1.44418 35.648C1.57228 35.7776 1.72516 35.9366 1.88218 36.0663C2.03148 36.2179 2.19321 36.3564 2.36563 36.4804C2.9813 37.0242 3.13419 37.2041 3.92754 37.6182C4.05563 37.6977 4.18372 37.7478 4.34074 37.8273C4.36553 37.8273 4.39032 37.8524 4.41512 37.8524C4.41512 37.9068 4.41512 37.9319 4.43991 37.9821C4.49972 38.4097 4.61073 38.8283 4.77047 39.2286C4.85311 39.3834 4.9027 39.5382 4.97707 39.693C5.006 39.7473 5.03079 39.7975 5.05972 39.8226C5.15888 40.0318 5.26218 40.2117 5.36135 40.3957L5.74563 40.9395C5.87373 41.0943 6.03074 41.2742 6.18363 41.4331C6.33651 41.5879 6.4894 41.7176 6.67121 41.8723C6.67121 41.8723 6.696 41.8974 6.72079 41.8974C6.87368 42.0271 7.02656 42.1568 7.18358 42.2614C7.36177 42.3879 7.54969 42.4998 7.74554 42.596C7.92322 42.7006 8.12982 42.8052 8.33229 42.8846C8.4974 42.96 8.66888 43.0202 8.84466 43.0645C8.87359 43.0896 8.89838 43.0896 8.94796 43.1147C9.05126 43.144 9.17936 43.1691 9.27853 43.1942C9.20415 44.5955 9.17936 45.9132 9.38596 46.3817C9.61322 46.9004 10.7413 45.3192 11.8652 43.5037C11.7164 45.2941 11.6131 47.394 11.8652 48.0172C12.1503 48.6656 13.6833 46.641 15.0179 44.4114C33.1782 40.1615 49.7477 52.8612 51.4873 70.8065C51.1567 68.0039 47.7478 66.4519 46.1859 66.841C45.4173 68.7568 44.1116 71.2206 42.0125 72.7516C42.1902 71.0366 42.1158 69.2797 41.7563 67.5646C41.1828 69.9519 40.098 72.1825 38.5788 74.0986C36.1492 74.2784 33.7154 73.0863 32.4345 71.2959C32.3312 71.2206 32.3064 71.0658 32.2279 70.9613C32.1535 70.7814 32.075 70.5973 32.0213 70.4175C31.9469 70.2438 31.8955 70.0609 31.8684 69.8737C31.8436 69.6896 31.8436 69.5098 31.8436 69.3006V68.9116C31.8742 68.7276 31.917 68.5459 31.9717 68.3678C32.0254 68.1879 32.075 68.008 32.1535 67.824C32.2527 67.6441 32.3312 67.4601 32.4593 67.2802C32.8931 66.0336 32.8931 65.0213 32.0998 64.4273C31.9457 64.3255 31.7824 64.2387 31.6122 64.168C31.513 64.1429 31.3849 64.0927 31.2816 64.0634L31.075 63.9881C30.8996 63.9306 30.72 63.8873 30.5379 63.8585C30.3633 63.8067 30.1825 63.78 30.0007 63.779C29.8147 63.7494 29.627 63.7327 29.4387 63.7288C29.3106 63.7288 29.1826 63.7539 29.0545 63.7539C28.863 63.7528 28.6723 63.7796 28.4884 63.8334C28.3107 63.8585 28.133 63.8836 27.9512 63.9337C27.7684 63.9834 27.589 64.0449 27.414 64.1178C27.2364 64.1931 27.0835 64.2726 26.9017 64.3521C26.7488 64.4273 26.5959 64.5319 26.4141 64.6114C20.4474 68.5518 24.0092 77.7796 28.0793 80.4526C26.5422 80.7371 24.9803 81.0717 24.5464 81.4105L24.4927 81.4607C25.5959 82.1342 26.7488 82.7073 27.9512 83.2009C29.5916 83.7447 31.3312 84.2341 32.0998 84.4432V84.4683C34.2217 84.9095 36.3916 85.067 38.554 84.9368C49.9006 84.1337 59.1977 75.3953 60.8877 63.8836L61.0406 64.557C61.1191 65.0255 61.2182 65.5191 61.272 66.0085V66.0336C61.3215 66.2679 61.3463 66.5021 61.3753 66.7113V66.8117C61.4 67.0459 61.4248 67.2802 61.4248 67.4893C61.4496 67.7738 61.4744 68.0582 61.4744 68.3427V68.761C61.4744 68.8865 61.5033 69.0412 61.5033 69.1709C61.5033 69.3299 61.4744 69.4846 61.4744 69.6394V70.0033C61.4744 70.1832 61.4496 70.338 61.4496 70.522C61.4496 70.6266 61.4496 70.7312 61.4248 70.8567C61.4248 71.0407 61.4 71.2206 61.4 71.4298C61.3753 71.5051 61.3753 71.5845 61.3753 71.6598L61.2926 72.258C61.2926 72.3375 61.2926 72.4128 61.272 72.4923C61.243 72.7516 61.1934 72.9859 61.1687 73.2452V73.2954L61.0158 74.0233V74.0986L60.8629 74.7971C60.8629 74.8264 60.834 74.8808 60.834 74.9017C60.7868 75.1389 60.7275 75.3735 60.6563 75.6045V75.6797C60.5778 75.9391 60.5034 76.1733 60.4497 76.4076C60.4249 76.4327 60.4249 76.4578 60.4249 76.4578L60.1935 77.2358C60.0943 77.4952 60.0158 77.7294 59.9125 77.9888C59.8092 78.2481 59.7348 78.5075 59.6315 78.7417C59.5282 79.0011 59.4249 79.2312 59.3258 79.4947H59.2968C59.1977 79.7248 59.0902 79.9841 58.9663 80.2184C58.9448 80.2803 58.9185 80.3404 58.8878 80.3982C58.863 80.4233 58.863 80.4526 58.8382 80.4777C57.1444 83.9105 54.6791 86.8934 51.6402 89.1868C51.4336 89.3165 51.2311 89.4755 51.0245 89.6302C50.9749 89.6804 50.9005 89.7055 50.8468 89.7557C50.6637 89.8928 50.4763 90.0239 50.2849 90.1489L50.3592 90.3037H50.3882L51.4625 90.1489H51.4873C52.1525 90.0443 52.8178 89.9147 53.4831 89.785C53.6649 89.7599 53.8673 89.7055 54.0492 89.6553L54.4086 89.5758C54.5863 89.5507 54.764 89.5005 54.9458 89.4755C55.0987 89.4211 55.2516 89.3918 55.4045 89.3458C57.9663 88.7183 60.4497 87.865 62.8339 86.8569C58.7177 92.5326 53.2433 97.0553 46.9255 100C49.8758 99.7908 52.8178 99.3014 55.6606 98.469C65.9503 95.4064 74.6409 88.3765 79.862 78.8923C78.8075 84.8961 76.4554 90.5897 72.9739 95.566C75.4561 93.9085 77.7495 91.9781 79.8124 89.8101C85.545 83.7513 89.3085 76.0615 90.597 67.7738C91.4648 71.8732 91.7209 76.0981 91.3408 80.2686C109.828 54.1621 92.8738 27.0936 85.7791 19.9657C85.7543 19.9113 85.7295 19.8862 85.7295 19.836C85.7047 19.8611 85.7047 19.8611 85.7047 19.8862C85.7047 19.8611 85.7047 19.8611 85.6758 19.836C85.6758 20.1456 85.651 20.4551 85.6262 20.7688C85.5552 21.3496 85.4698 21.9284 85.37 22.5048C85.246 23.0737 85.089 23.6468 84.9361 24.2199C84.7543 24.7637 84.5519 25.3326 84.3163 25.8764C84.0822 26.4134 83.8272 26.9409 83.5519 27.4575C82.9801 28.4739 82.3206 29.437 81.5809 30.3355C81.1966 30.7998 80.7876 31.2139 80.3744 31.6322C80.1329 31.8558 79.8848 32.072 79.6306 32.2806L79.0439 32.7993C78.5867 33.1646 78.1078 33.5013 77.61 33.8074C77.1205 34.1266 76.6158 34.4211 76.0977 34.69C75.5605 34.9494 75.0234 35.1836 74.4862 35.4179C73.3921 35.8392 72.2601 36.1516 71.1062 36.3507C70.5153 36.4553 69.9286 36.5055 69.3625 36.5599C68.954 36.5891 68.5448 36.6059 68.1353 36.6101C67.5528 36.6019 66.9709 36.567 66.3915 36.5055C65.8066 36.459 65.2254 36.3723 64.652 36.2461C64.0711 36.1394 63.4982 35.9927 62.9372 35.8069H62.9082C63.4743 35.7525 64.0363 35.7023 64.6024 35.5978C65.7556 35.3954 66.8873 35.083 67.9824 34.6649C68.5443 34.4558 69.0815 34.1964 69.5939 33.9371C70.131 33.6777 70.6186 33.3933 71.131 33.0837C71.6186 32.7491 72.102 32.4103 72.5648 32.0464C73.0276 31.6824 73.4615 31.2934 73.8705 30.8793C74.3044 30.4903 74.6887 30.051 75.073 29.6076C75.4572 29.1433 75.8167 28.6748 76.1473 28.2105C76.201 28.131 76.2547 28.0264 76.3043 27.9511C76.5605 27.5328 76.8167 27.1187 77.0481 26.7046C77.6127 25.6727 78.075 24.5868 78.4282 23.4627C78.61 22.9189 78.7381 22.35 78.8662 21.777C78.9695 21.183 79.0728 20.6141 79.1224 20.041C79.1719 19.447 79.2257 18.8488 79.2257 18.2799C79.2257 17.8616 79.1967 17.4475 79.1719 17.0334C79.1209 16.4527 79.052 15.8738 78.9653 15.2974C78.8657 14.713 78.7389 14.1337 78.5852 13.5615C78.4034 13.0177 78.2257 12.4446 78.0191 11.9008C77.8125 11.357 77.5605 10.8132 77.3043 10.2945C77.0192 9.77579 76.7382 9.25709 76.4324 8.76349C76.1053 8.27889 75.7636 7.80459 75.4077 7.34125C75.0234 6.89785 74.6391 6.45445 74.23 6.01523C74.0145 5.79268 73.7926 5.57646 73.5648 5.36685C72.4078 4.45913 71.2095 3.60579 70.003 2.82774C69.8375 2.73098 69.6664 2.64437 69.4906 2.56839C68.7309 2.09752 67.9124 1.73174 67.0568 1.4808V1.47662Z" fill="#328267"/>
</svg>
