<svg width="100" height="100" viewBox="0 0 100 100" fill="none" xmlns="http://www.w3.org/2000/svg">
<g clip-path="url(#clip0_15_33)">
<mask id="mask0_15_33" style="mask-type:luminance" maskUnits="userSpaceOnUse" x="0" y="0" width="100" height="100">
<path d="M0 0H100V100H0V0Z" fill="white"/>
</mask>
<g mask="url(#mask0_15_33)">
<path d="M46.725 0.0255208C46.5083 0.0463542 45.825 0.117187 45.2083 0.163021C31.0083 1.44635 17.7083 9.10885 9.275 20.888C4.61792 27.3535 1.5905 34.8478 0.45 42.7339C0.05 45.4839 0 46.2922 0 50.0172C0 53.7422 0.05 54.5547 0.45 57.3005C3.16667 76.0797 16.5333 91.8547 34.6542 97.7005C37.9 98.7464 41.3208 99.4589 45.2083 99.8922C46.725 100.059 53.275 100.059 54.7917 99.8922C61.5042 99.1464 67.1958 97.4839 72.8042 94.6214C73.6667 94.1839 73.8333 94.063 73.7167 93.9672C70.9733 90.3493 68.258 86.7103 65.5708 83.0505L57.575 72.2464L47.5583 57.4172C44.2255 52.4572 40.8615 47.5182 37.4667 42.6005C37.4292 42.588 37.3917 49.1755 37.3708 57.2255C37.3417 71.3089 37.3292 71.8755 37.1542 72.2089C36.9835 72.5979 36.6789 72.9128 36.2958 73.0964C35.9833 73.2547 35.7125 73.2839 34.2333 73.2839H32.5417L32.0917 73.0005C31.8132 72.8247 31.5872 72.5772 31.4375 72.2839L31.2292 71.8464L31.25 52.2464L31.2792 32.638L31.5833 32.2547C31.7881 32.015 32.0335 31.8133 32.3083 31.6589C32.7083 31.463 32.8625 31.4464 34.5583 31.4464C36.55 31.4464 36.8833 31.5214 37.4 32.088C37.5458 32.2464 42.9708 40.4214 49.4625 50.263L69.1875 80.1464L77.1042 92.138L77.5083 91.8755C81.3183 89.3426 84.7725 86.3115 87.7792 82.863C94.0798 75.6517 98.1668 66.7762 99.55 57.3005C99.95 54.5505 100 53.7422 100 50.0172C100 46.2922 99.95 45.4839 99.55 42.7339C96.8333 23.9589 83.4667 8.17969 65.3458 2.33385C61.9591 1.25706 58.4718 0.526926 54.9375 0.154687C53.9958 0.0546875 47.5375 -0.0536458 46.7292 0.0296875L46.725 0.0255208ZM67.1958 30.2755C67.4282 30.3925 67.6351 30.5544 67.8046 30.7518C67.9741 30.9492 68.1028 31.1781 68.1833 31.4255C68.2583 31.6755 68.2792 37.113 68.2583 49.363L68.2292 66.938L65.1333 62.188L62.025 57.438V44.663C62.025 36.4005 62.0625 31.7589 62.1208 31.5339C62.1902 31.2736 62.3116 31.0301 62.4778 30.8181C62.6439 30.6061 62.8513 30.4301 63.0875 30.3005C63.4917 30.0922 63.6375 30.0755 65.1708 30.0755C66.6167 30.0755 66.8708 30.1005 67.1958 30.2755Z" fill="url(#paint0_linear_15_33)"/>
</g>
</g>
<defs>
<linearGradient id="paint0_linear_15_33" x1="50" y1="0" x2="50" y2="100.017" gradientUnits="userSpaceOnUse">
<stop stop-color="#328267"/>
<stop offset="1" stop-color="#314740"/>
</linearGradient>
<clipPath id="clip0_15_33">
<rect width="100" height="100" fill="white"/>
</clipPath>
</defs>
</svg>
