<svg width="88" height="100" viewBox="0 0 88 100" fill="none" xmlns="http://www.w3.org/2000/svg">
<path d="M43.8604 100C42.5471 100 41.2142 99.6428 40.0578 98.9682L27.9638 91.7254C26.1605 90.6935 27.0425 90.3363 27.6306 90.1379C30.0415 89.2847 30.5316 89.1061 33.0993 87.6178C33.3737 87.4591 33.7266 87.5186 34.001 87.6972L43.292 93.2731C43.6252 93.4716 44.0956 93.4716 44.4092 93.2731L80.6127 72.1203C80.946 71.9218 81.1616 71.525 81.1616 71.1281V28.8223C81.1616 28.4056 80.946 28.0286 80.5931 27.8103L44.4092 6.67725C44.076 6.47882 43.6252 6.47882 43.292 6.67725L7.12767 27.8301C6.77485 28.0286 6.55923 28.4254 6.55923 28.8421V71.1281C6.55923 71.525 6.77485 71.9218 7.12767 72.1004L17.0459 77.8946C22.4362 80.6132 25.7293 77.4184 25.7293 74.1839V32.4338C25.7293 31.8385 26.1997 31.3821 26.7877 31.3821H31.3744C31.9428 31.3821 32.4329 31.8385 32.4329 32.4338V74.2038C32.4329 81.4664 28.5126 85.6335 21.711 85.6335C19.6137 85.6335 17.9672 85.6335 13.3805 83.3317L3.89346 77.7954C1.54131 76.4262 0.0908203 73.8665 0.0908203 71.1082V28.8223C0.0908203 26.0839 1.54131 23.5043 3.89346 22.1351L40.0578 0.98224C42.3511 -0.327413 45.3893 -0.327413 47.663 0.98224L83.8666 22.155C86.2187 23.5242 87.6692 26.0839 87.6692 28.8421V71.1281C87.6692 73.8665 86.2187 76.4262 83.8666 77.8153L47.663 98.9682C46.5066 99.6428 45.1933 100 43.8604 100ZM73.0859 58.3094C73.0859 50.3919 67.7935 48.2885 56.6796 46.8003C45.4285 45.2922 44.2916 44.5183 44.2916 41.8593C44.2916 39.6567 45.2521 36.7199 53.5826 36.7199C61.0115 36.7199 63.7557 38.3471 64.8925 43.4269C64.9905 43.9032 65.4218 44.2603 65.9118 44.2603H70.6161C70.9101 44.2603 71.1845 44.1413 71.3806 43.923C71.5766 43.7047 71.6746 43.4071 71.655 43.1094C70.9297 34.3586 65.1866 30.2907 53.5826 30.2907C43.2528 30.2907 37.098 34.6959 37.098 42.0974C37.098 50.1141 43.2332 52.3365 53.1318 53.3287C64.9905 54.4995 65.9118 56.2655 65.9118 58.6269C65.9118 62.7146 62.658 64.4608 55.0331 64.4608C45.4481 64.4608 43.3508 62.02 42.6451 57.1981C42.5667 56.6822 42.1355 56.3052 41.6063 56.3052H36.9216C36.3335 56.3052 35.8827 56.7814 35.8827 57.3569C35.8827 63.5281 39.1953 70.89 55.0527 70.89C66.4998 70.8701 73.0859 66.2863 73.0859 58.3094V58.3094Z" fill="#328267"/>
</svg>
