<svg width="89" height="100" viewBox="0 0 89 100" fill="none" xmlns="http://www.w3.org/2000/svg">
<g clip-path="url(#clip0_4_79)">
<path d="M44.1934 100C42.8801 100 41.5472 99.6428 40.3908 98.9682L28.2968 91.7254C26.4935 90.6935 27.3755 90.3363 27.9636 90.1379C30.3745 89.2847 30.8646 89.1061 33.4323 87.6178C33.7067 87.4591 34.0596 87.5186 34.334 87.6972L43.625 93.2731C43.9582 93.4716 44.4286 93.4716 44.7422 93.2731L80.9457 72.1203C81.279 71.9218 81.4946 71.525 81.4946 71.1281V28.8223C81.4946 28.4056 81.279 28.0286 80.9261 27.8103L44.7422 6.67725C44.409 6.47882 43.9582 6.47882 43.625 6.67725L7.46068 27.8301C7.10786 28.0286 6.89224 28.4254 6.89224 28.8421V71.1281C6.89224 71.525 7.10786 71.9218 7.46068 72.1004L17.3789 77.8946C22.7692 80.6132 26.0623 77.4184 26.0623 74.1839V32.4338C26.0623 31.8385 26.5327 31.3821 27.1207 31.3821H31.7074C32.2758 31.3821 32.7659 31.8385 32.7659 32.4338V74.2038C32.7659 81.4664 28.8456 85.6335 22.044 85.6335C19.9467 85.6335 18.3002 85.6335 13.7135 83.3317L4.22647 77.7954C1.87432 76.4262 0.423828 73.8665 0.423828 71.1082V28.8223C0.423828 26.0839 1.87432 23.5043 4.22647 22.1351L40.3908 0.98224C42.6841 -0.327413 45.7223 -0.327413 47.996 0.98224L84.1996 22.155C86.5517 23.5242 88.0022 26.0839 88.0022 28.8421V71.1281C88.0022 73.8665 86.5517 76.4262 84.1996 77.8153L47.996 98.9682C46.8396 99.6428 45.5263 100 44.1934 100ZM73.4189 58.3094C73.4189 50.3919 68.1265 48.2885 57.0126 46.8003C45.7615 45.2922 44.6246 44.5183 44.6246 41.8593C44.6246 39.6567 45.5851 36.7199 53.9156 36.7199C61.3445 36.7199 64.0887 38.3471 65.2255 43.4269C65.3235 43.9032 65.7548 44.2603 66.2448 44.2603H70.9491C71.2431 44.2603 71.5175 44.1413 71.7136 43.923C71.9096 43.7047 72.0076 43.4071 71.988 43.1094C71.2627 34.3586 65.5196 30.2907 53.9156 30.2907C43.5858 30.2907 37.431 34.6959 37.431 42.0974C37.431 50.1141 43.5662 52.3365 53.4648 53.3287C65.3235 54.4995 66.2448 56.2655 66.2448 58.6269C66.2448 62.7146 62.991 64.4608 55.3661 64.4608C45.7811 64.4608 43.6838 62.02 42.9781 57.1981C42.8997 56.6822 42.4685 56.3052 41.9393 56.3052H37.2546C36.6665 56.3052 36.2157 56.7814 36.2157 57.3569C36.2157 63.5281 39.5283 70.89 55.3857 70.89C66.8328 70.8701 73.4189 66.2863 73.4189 58.3094Z" fill="url(#paint0_linear_4_79)"/>
</g>
<defs>
<linearGradient id="paint0_linear_4_79" x1="44.213" y1="0" x2="44.213" y2="100" gradientUnits="userSpaceOnUse">
<stop stop-color="#328267"/>
<stop offset="1" stop-color="#314740"/>
</linearGradient>
<clipPath id="clip0_4_79">
<rect x="0.333984" width="88" height="100" fill="white"/>
</clipPath>
</defs>
</svg>
