<svg width="98" height="100" viewBox="0 0 98 100" fill="none" xmlns="http://www.w3.org/2000/svg">
<g clip-path="url(#clip0_16_63)">
<path d="M69.7102 0C65.8211 0.0295922 61.9545 0.593228 58.2188 1.6751L57.9595 1.75948C55.6091 1.35228 53.2314 1.12349 50.8465 1.07507C45.9306 0.990686 41.7116 2.17826 38.3114 4.16588C34.958 3.01269 28.0076 0.990686 20.6821 1.40009C15.5912 1.6751 10.0221 3.22207 5.88435 7.58485C1.7841 11.932 -0.394164 18.6699 0.0589886 27.8517C0.187122 30.3738 0.905916 34.4896 2.10912 39.8431C3.29669 45.1841 4.97492 51.4344 7.07505 57.1473C9.17518 62.8445 11.4659 67.9698 15.0505 71.4513C16.8382 73.192 19.3133 74.6765 22.226 74.5484C24.2636 74.464 26.1012 73.5702 27.6982 72.2514C28.4764 73.2764 29.3108 73.7139 30.0577 74.1233C31.0203 74.6453 31.9297 75.0015 32.8923 75.2328C34.6174 75.6703 37.5644 76.2422 41.0147 75.6547C42.271 75.4286 43.4956 75.0519 44.6618 74.5328L44.8086 78.6174C44.9868 82.9301 45.1055 86.9179 46.3869 90.4181C46.5994 90.99 47.1713 93.9183 49.4152 96.5216C51.6778 99.1249 56.0687 100.737 61.1003 99.6624C64.6349 98.9124 69.1414 97.5467 72.1385 93.2839C75.1011 89.0837 76.4356 83.0458 76.6981 73.2452C76.7606 72.7076 76.845 72.2701 76.9231 71.8451L77.6232 71.9107H77.7076C81.4828 72.0732 85.5862 71.5357 89.0208 69.9387C92.0459 68.5386 94.343 67.1229 96.0181 64.6009C96.4275 63.979 96.8962 63.2164 97.015 61.9132C97.1431 60.6288 96.3931 58.5911 95.1555 57.6505C92.6835 55.7628 91.1209 56.4785 89.4427 56.8379C87.7991 57.192 86.1262 57.3929 84.4455 57.4379C89.2614 49.3343 92.7116 40.7088 94.6836 33.0864C95.8556 28.5768 96.5087 24.4265 96.5556 20.7982C96.6212 17.1698 96.315 13.9634 94.1461 11.1819C87.3425 2.50641 77.7857 0.0937558 70.3977 0.015626H69.7133L69.7102 0ZM69.5133 2.67204C76.4981 2.60641 85.4299 4.55966 91.8428 12.7602C93.2929 14.6009 93.7179 17.2854 93.6679 20.6075C93.6179 23.9296 93.0023 27.883 91.8772 32.2301C89.7145 40.665 85.5924 50.4594 79.8171 59.2693C80.0158 59.4191 80.2346 59.54 80.4671 59.6287C81.6703 60.1319 84.4205 60.5538 89.9208 59.4318C91.3053 59.1349 92.3178 58.9443 93.3741 59.7412C93.6305 59.9574 93.833 60.2304 93.9653 60.5386C94.0977 60.8467 94.1564 61.1815 94.1367 61.5163C94.0798 62.0238 93.8889 62.507 93.5835 62.9164C92.5241 64.5071 90.4302 66.026 87.7425 67.2792C85.3674 68.3824 81.9453 68.9543 78.9389 68.9887C77.4107 69.0043 76.0106 68.8886 74.8167 68.5136L74.7542 68.5011C74.2948 72.9108 73.2417 81.6363 72.5541 85.6053C72.0041 88.8086 71.0415 91.3682 69.2039 93.2714C67.3632 95.1934 64.7755 96.331 61.2753 97.081C56.9469 98.0092 53.8029 97.0154 51.7716 95.3059C49.7402 93.5964 48.8089 91.3182 48.2557 89.9337C47.8682 88.9743 47.6713 87.7367 47.4776 86.0741C47.2648 84.089 47.1231 82.097 47.0525 80.1018C46.9244 76.6016 46.8744 73.1014 46.9244 69.5856C45.1187 71.2412 42.8755 72.3432 40.4615 72.7608C37.5832 73.2483 35.0268 72.7608 33.4986 72.3857C32.7446 72.1934 32.0172 71.909 31.3328 71.5388C30.6171 71.1638 29.9483 70.7419 29.4952 69.8918C29.2341 69.405 29.1533 68.8417 29.267 68.3011C29.4022 67.752 29.7181 67.2644 30.164 66.9167C30.9922 66.2447 32.086 65.876 33.7267 65.5322C36.7238 64.9103 37.7801 64.4915 38.4145 63.9821C38.952 63.5602 39.5739 62.682 40.6428 61.3944C40.6428 61.3476 40.6428 61.2819 40.6271 61.2319C38.6905 61.173 36.7947 60.6602 35.0924 59.735C34.4767 60.385 31.2672 63.7727 27.3794 68.4605C25.7512 70.4106 23.9448 71.5357 22.026 71.6201C20.1227 71.6982 18.3914 70.7419 16.9288 69.323C14.0005 66.4729 11.6535 61.5726 9.61896 56.0378C7.58446 50.5031 5.9406 44.3371 4.75303 39.0962C3.58108 33.8365 2.88104 29.605 2.78103 27.5705C2.34351 18.8949 4.37801 13.0539 7.85947 9.35683C11.3409 5.65973 16.1131 4.27839 20.7696 4.00337C29.1202 3.53147 37.0613 6.44415 38.6583 7.06294C41.7491 4.96281 45.7368 3.66273 50.7184 3.74086C53.0791 3.77558 55.4281 4.08177 57.7188 4.65341L57.8032 4.60341C58.8111 4.25435 59.8377 3.96221 60.8784 3.72836C63.7068 3.06458 66.5989 2.70936 69.5039 2.66892L69.5133 2.67204ZM70.1477 5.45346H69.532C67.1569 5.48159 64.7599 5.76286 62.4347 6.26601C67.6257 8.56303 71.5478 12.0914 74.3136 15.6416C76.2356 18.0824 77.8138 20.7669 79.017 23.6327C79.492 24.7422 79.8014 25.6672 79.9639 26.3829C80.0608 26.7423 80.1108 27.0486 80.1421 27.3579C80.1421 27.5205 80.1577 27.6861 80.0765 27.9611C80.0765 27.9767 80.0608 28.0111 80.0608 28.0267C80.1952 31.6738 79.2827 34.1427 79.1639 37.6273C79.0858 40.1525 79.7358 43.1152 79.8983 46.3529C80.0452 49.3937 79.6733 52.7314 77.7013 56.0191C77.8638 56.216 78.0107 56.4097 78.1732 56.6223C83.3985 48.3843 87.1738 39.2868 89.177 31.5207C90.2521 27.3361 90.8177 23.5452 90.8677 20.5544C90.9177 17.5573 90.3646 15.376 89.6458 14.4665C84.0454 7.3192 76.4794 5.49409 70.1446 5.45034L70.1477 5.45346ZM50.1746 6.5254C45.2618 6.54103 41.7272 8.0255 39.0458 10.2538C36.2737 12.5664 34.4205 15.7072 33.2173 18.9449C31.7672 22.7702 31.264 26.4798 31.0672 29.0049L31.1328 28.9705C32.8679 27.999 34.7311 27.2762 36.6675 26.8235C38.752 26.3329 41.0147 26.186 43.046 26.986C45.0993 27.7642 46.7744 29.6362 47.3932 32.452C50.3277 46.0279 46.4837 51.075 45.068 54.8815C44.5305 56.266 44.0586 57.6661 43.6836 59.0974C43.8617 59.063 44.043 59.013 44.2211 58.9974C45.2305 58.9193 46.0087 59.2443 46.4681 59.4381C47.9026 60.0381 48.8776 61.2757 49.4152 62.6914C49.5471 63.0778 49.6444 63.4753 49.7058 63.879C49.7597 64.0478 49.7881 64.2237 49.7902 64.4009C49.6261 69.5918 49.6418 74.7869 49.8371 79.9768C49.9371 82.2238 50.084 84.1927 50.2621 85.7553C50.4402 87.3023 50.684 88.4899 50.8496 88.8961C51.384 90.2306 52.1653 91.9713 53.5842 93.1589C54.9843 94.3496 57 95.1309 60.6971 94.3496C63.9004 93.6496 65.8724 92.7026 67.1882 91.3369C68.5101 89.9525 69.2883 88.0492 69.7914 85.1365C70.5571 80.7581 72.0697 68.0605 72.251 65.6853C72.1728 63.8758 72.4291 62.4945 73.0166 61.4351C73.601 60.36 74.5136 59.6943 75.3137 59.3349C75.7012 59.1568 76.0762 59.0443 76.3856 58.9443C76.0582 58.4876 75.7216 58.0374 75.3762 57.5942C74.2355 56.2102 73.2979 54.6706 72.5916 53.022C72.2668 52.3307 71.908 51.6559 71.5165 51C70.9665 50.0094 70.2665 48.753 69.532 47.3373C68.0663 44.5371 66.4725 41.1213 65.6412 37.7992C64.813 34.4771 64.7005 31.0457 66.8163 28.6362C68.6882 26.486 71.9916 25.5953 76.92 26.0985C76.7731 25.6578 76.695 25.2828 76.4481 24.714C75.3271 22.0812 73.8656 19.6068 72.101 17.3542C67.9163 12.0007 61.1284 6.69104 50.6653 6.5129L50.1746 6.5254ZM22.5073 6.73792C21.9808 6.73736 21.4544 6.75404 20.929 6.78792C16.7131 7.03481 12.741 8.25051 9.89085 11.2632C7.0438 14.2915 5.17493 19.2231 5.57808 27.4111C5.66246 28.9737 6.32813 33.3021 7.48132 38.4618C8.64077 43.6246 10.2815 49.6968 12.2535 55.0659C14.2192 60.4194 16.6006 65.0915 18.8789 67.3042C20.0165 68.3949 21.0072 68.8511 21.9041 68.8199C22.801 68.7699 23.8917 68.248 25.2262 66.6541C27.6479 63.7321 30.1618 60.8878 32.7641 58.1255C30.9185 56.5188 29.5069 54.4736 28.6593 52.1781C27.8117 49.8827 27.5553 47.4108 27.9138 44.9903C28.3357 41.9151 28.4014 39.0305 28.3357 36.7523C28.2889 34.5396 28.1389 33.0771 28.1389 32.1489V32.0489L28.1232 32.0207C28.1232 27.2173 28.9733 22.467 30.5984 17.9574C31.7703 14.8447 33.4986 11.707 36.0987 9.14744C33.5454 8.30051 29.0014 7.03481 24.0886 6.78792C23.5632 6.75414 23.0337 6.73746 22.5073 6.73792ZM74.1667 28.7424C71.3384 28.7924 69.7571 29.5268 68.9133 30.4675C67.7382 31.8207 67.6257 34.1959 68.3601 37.1273C69.0883 40.0556 70.6071 43.3277 72.0228 46.0497C72.7229 47.4154 73.4073 48.6374 73.9573 49.6281C74.5292 50.6375 74.9355 51.3376 75.1793 51.9563C75.4074 52.5095 75.6699 52.997 75.9293 53.4533C77.02 51.1407 77.2169 48.878 77.1013 46.5029C76.9544 43.5746 76.2731 40.5775 76.3856 37.5523C76.5012 34.0021 77.2013 31.6895 77.2513 28.9549C76.2306 28.82 75.2025 28.749 74.173 28.7424H74.1667ZM39.8583 29.2362C38.9958 29.2362 38.1332 29.3487 37.2863 29.5456C35.6078 29.9493 33.9919 30.579 32.4829 31.4176C31.975 31.6924 31.491 32.0091 31.0359 32.3645L30.9359 32.4426C30.9703 33.0645 31.0828 34.5271 31.1328 36.7085C31.1828 39.0837 31.1328 42.1089 30.6796 45.3841C29.6702 52.5126 34.8455 58.4067 40.9178 58.4224C41.2772 56.9567 41.8585 55.4722 42.446 53.9127C44.1367 49.3531 47.4588 46.0341 44.6586 33.0458C44.2055 30.93 43.2929 30.0675 42.0366 29.58C41.3375 29.3339 40.5992 29.2184 39.8583 29.2393V29.2362ZM72.851 30.08H73.0635C73.3229 30.0956 73.5854 30.1144 73.8104 30.1769C74.0136 30.2166 74.2076 30.294 74.3823 30.405C74.4636 30.4537 74.5333 30.5195 74.5867 30.5977C74.6401 30.6759 74.6759 30.7648 74.6917 30.8582V30.8925C74.6909 31.0924 74.6404 31.2889 74.5449 31.4645C74.4219 31.6889 74.2695 31.896 74.0917 32.0801C73.6715 32.55 73.1018 32.8602 72.4791 32.9583C71.8766 33.0356 71.267 32.8851 70.7696 32.5364C70.5726 32.3935 70.3923 32.2289 70.2321 32.0457C70.0915 31.8978 69.9998 31.7101 69.9696 31.5082C69.9512 31.3156 70.0096 31.1236 70.1321 30.9738C70.2768 30.8259 70.442 30.6996 70.6227 30.5988C71.0259 30.3706 71.5634 30.2081 72.1853 30.1237C72.4104 30.0956 72.6385 30.0769 72.851 30.0612V30.08ZM40.2615 30.78C40.474 30.78 40.7209 30.7957 40.949 30.8269C41.5991 30.9269 42.1522 31.0894 42.5898 31.3488C42.8043 31.4533 42.9931 31.6038 43.1429 31.7895C43.3052 31.9853 43.3868 32.2356 43.3711 32.4895C43.3266 32.7301 43.2187 32.9545 43.0585 33.1396C42.8871 33.3483 42.6848 33.5296 42.4585 33.6771C41.917 34.0662 41.2478 34.2349 40.5865 34.149C39.9166 34.0413 39.3029 33.7097 38.8458 33.2083C38.6538 33.002 38.4889 32.772 38.3551 32.5239C38.2093 32.3027 38.1462 32.037 38.177 31.7738C38.2426 31.3363 38.6176 31.0894 38.977 30.9613C39.3864 30.8269 39.824 30.7832 40.2615 30.7988V30.78ZM78.0107 61.3788H77.9951C77.395 61.6069 76.8919 61.6913 76.4669 61.8882C76.0367 62.0505 75.6831 62.3683 75.4762 62.7789C75.198 63.2539 74.9886 64.1008 75.0511 65.5447C75.2391 65.6799 75.4497 65.7805 75.6731 65.8416C76.3731 66.0541 77.5763 66.201 78.9108 66.1822C81.564 66.1479 84.8361 65.5322 86.5769 64.7165C87.9995 64.0572 89.3203 63.1974 90.499 62.1632C84.6892 63.3508 81.4203 63.0414 79.3983 62.2132C78.9015 61.9983 78.4328 61.7177 78.0107 61.3788ZM44.5461 61.7695H44.4617C44.2367 61.7851 43.9242 61.8695 43.2898 62.5539C41.8397 64.179 41.3365 65.204 40.149 66.151C38.9458 67.1104 37.3988 67.6167 34.2892 68.2511C33.626 68.3698 32.9802 68.5714 32.3672 68.8511C32.4798 68.9512 32.4797 68.9855 32.6579 69.0637C33.1173 69.3262 33.6986 69.5387 34.1736 69.6668C35.5081 69.9918 37.6863 70.3825 39.9833 69.9918C42.2616 69.6012 44.6368 68.5074 46.6744 65.6634C47.0338 65.1759 47.0619 64.4415 46.7713 63.6602C46.4806 62.8977 45.8431 62.2132 45.4056 62.0351C45.1317 61.9077 44.8414 61.8193 44.543 61.7726L44.5461 61.7695Z" fill="#328267"/>
</g>
<defs>
<clipPath id="clip0_16_63">
<rect width="98" height="100" fill="white"/>
</clipPath>
</defs>
</svg>
