<svg width="111" height="100" viewBox="0 0 111 100" fill="none" xmlns="http://www.w3.org/2000/svg">
<path d="M55.2088 40.1737C60.4986 40.1737 64.8126 44.5409 64.8126 50C64.8126 55.1991 60.4986 59.6184 55.2088 59.6184C49.9191 59.6184 45.6051 55.1991 45.6051 50C45.6051 44.5409 49.9191 40.1737 55.2088 40.1737ZM31.4305 91.5929C34.666 93.5685 41.7533 90.553 49.9191 82.7544C47.2485 79.6869 44.6293 76.3595 42.1641 72.8761C38.0255 72.4751 33.9111 71.8503 29.8384 71.0044C27.2192 82.1305 28.195 89.7732 31.4305 91.5929M35.0769 61.75L33.5875 59.0984C33.0226 60.6062 32.4577 62.1139 32.0982 63.5697C33.4848 63.8816 35.0255 64.1416 36.6176 64.4015L35.0769 61.75ZM68.6644 57.7987L72.8243 50L68.6644 42.2013C67.1237 39.4458 65.4802 37.0022 63.9909 34.5586C61.2176 34.4027 58.2903 34.4027 55.2088 34.4027C52.1274 34.4027 49.2001 34.4027 46.4268 34.5586C44.9374 37.0022 43.294 39.4458 41.7533 42.2013L37.5934 50L41.7533 57.7987C43.294 60.5542 44.9374 62.9978 46.4268 65.4414C49.2001 65.5973 52.1274 65.5973 55.2088 65.5973C58.2903 65.5973 61.2176 65.5973 63.9909 65.4414C65.4802 62.9978 67.1237 60.5542 68.6644 57.7987M55.2088 22.8607C54.233 24.0045 53.2059 25.2003 52.1788 26.604H58.2389C57.2118 25.2003 56.1846 24.0045 55.2088 22.8607ZM55.2088 77.1393C56.1846 75.9955 57.2118 74.7997 58.2389 73.396H52.1788C53.2059 74.7997 54.233 75.9955 55.2088 77.1393ZM78.9358 8.40713C75.7517 6.43147 68.6644 9.44695 60.4986 17.2456C63.1692 20.3131 65.7884 23.6405 68.2535 27.1239C72.4648 27.5398 76.6247 28.1637 80.5792 28.9956C83.1984 17.8695 82.2226 10.2268 78.9358 8.40713ZM75.3408 38.25L76.8301 40.9016C77.3951 39.3938 77.96 37.8861 78.3195 36.4303C76.9329 36.1184 75.3921 35.8584 73.8001 35.5985L75.3408 38.25M82.7876 1.5963C90.3371 5.96355 91.1588 17.4536 87.9746 30.8673C101.019 34.7666 110.418 41.2135 110.418 50C110.418 58.7865 101.019 65.2334 87.9746 69.1327C91.1588 82.5464 90.3371 94.0364 82.7876 98.4037C75.2894 102.771 65.0694 97.7798 55.2088 88.2654C45.3483 97.7798 35.1282 102.771 27.5787 98.4037C20.0806 94.0364 19.2589 82.5464 22.443 69.1327C9.39834 65.2334 0 58.7865 0 50C0 41.2135 9.39834 34.7666 22.443 30.8673C19.2589 17.4536 20.0806 5.96355 27.5787 1.5963C35.1282 -2.77095 45.3483 2.22019 55.2088 11.7346C65.0694 2.22019 75.2894 -2.77095 82.7876 1.5963ZM81.2982 50C83.0443 53.8993 84.5851 57.7987 85.869 61.75C96.654 58.4745 102.714 53.7953 102.714 50C102.714 46.2046 96.654 41.5255 85.869 38.25C84.5851 42.2013 83.0443 46.1007 81.2982 50ZM29.1194 50C27.3733 46.1007 25.8326 42.2013 24.5487 38.25C13.7637 41.5255 7.70356 46.2046 7.70356 50C7.70356 53.7953 13.7637 58.4745 24.5487 61.75C25.8326 57.7987 27.3733 53.8993 29.1194 50ZM75.3408 61.75L73.8001 64.4015C75.3921 64.1416 76.9329 63.8816 78.3195 63.5697C77.96 62.1139 77.3951 60.6062 76.8301 59.0984L75.3408 61.75M60.4986 82.7544C68.6644 90.553 75.7517 93.5685 78.9358 91.5929C82.2226 89.7732 83.1984 82.1305 80.5792 71.0044C76.6247 71.8363 72.4648 72.4601 68.2535 72.8761C65.7884 76.3595 63.1692 79.6869 60.4986 82.7544M35.0769 38.25L36.6176 35.5985C35.0255 35.8584 33.4848 36.1184 32.0982 36.4303C32.4577 37.8861 33.0226 39.3938 33.5875 40.9016L35.0769 38.25ZM49.9191 17.2456C41.7533 9.44695 34.666 6.43147 31.4305 8.40713C28.195 10.2268 27.2192 17.8695 29.8384 28.9956C33.9111 28.1497 38.0255 27.5249 42.1641 27.1239C44.6293 23.6405 47.2485 20.3131 49.9191 17.2456V17.2456Z" fill="#328267"/>
</svg>
