<svg width="112" height="100" viewBox="0 0 112 100" fill="none" xmlns="http://www.w3.org/2000/svg">
<g clip-path="url(#clip0_16_72)">
<path d="M55.5428 40.1737C60.8326 40.1737 65.1466 44.5409 65.1466 50C65.1466 55.1991 60.8326 59.6184 55.5428 59.6184C50.2531 59.6184 45.9391 55.1991 45.9391 50C45.9391 44.5409 50.2531 40.1737 55.5428 40.1737ZM31.7645 91.5929C35 93.5685 42.0873 90.553 50.2531 82.7544C47.5825 79.6869 44.9633 76.3595 42.4981 72.8761C38.3595 72.4751 34.2451 71.8503 30.1724 71.0044C27.5532 82.1305 28.529 89.7732 31.7645 91.5929ZM35.4109 61.75L33.9215 59.0984C33.3566 60.6062 32.7917 62.1139 32.4322 63.5697C33.8188 63.8816 35.3595 64.1416 36.9516 64.4015L35.4109 61.75ZM68.9984 57.7987L73.1583 50L68.9984 42.2013C67.4577 39.4458 65.8142 37.0022 64.3249 34.5586C61.5516 34.4027 58.6243 34.4027 55.5428 34.4027C52.4614 34.4027 49.5341 34.4027 46.7608 34.5586C45.2714 37.0022 43.628 39.4458 42.0873 42.2013L37.9274 50L42.0873 57.7987C43.628 60.5542 45.2714 62.9978 46.7608 65.4414C49.5341 65.5973 52.4614 65.5973 55.5428 65.5973C58.6243 65.5973 61.5516 65.5973 64.3249 65.4414C65.8142 62.9978 67.4577 60.5542 68.9984 57.7987ZM55.5428 22.8607C54.567 24.0045 53.5399 25.2003 52.5128 26.604H58.5729C57.5458 25.2003 56.5186 24.0045 55.5428 22.8607ZM55.5428 77.1393C56.5186 75.9955 57.5458 74.7997 58.5729 73.396H52.5128C53.5399 74.7997 54.567 75.9955 55.5428 77.1393ZM79.2698 8.40713C76.0857 6.43147 68.9984 9.44695 60.8326 17.2456C63.5032 20.3131 66.1224 23.6405 68.5875 27.1239C72.7988 27.5398 76.9587 28.1637 80.9132 28.9956C83.5324 17.8695 82.5566 10.2268 79.2698 8.40713ZM75.6748 38.25L77.1641 40.9016C77.7291 39.3938 78.294 37.8861 78.6535 36.4303C77.2669 36.1184 75.7261 35.8584 74.1341 35.5985L75.6748 38.25ZM83.1216 1.5963C90.6711 5.96355 91.4928 17.4536 88.3086 30.8673C101.353 34.7666 110.752 41.2135 110.752 50C110.752 58.7865 101.353 65.2334 88.3086 69.1327C91.4928 82.5464 90.6711 94.0364 83.1216 98.4037C75.6234 102.771 65.4034 97.7798 55.5428 88.2654C45.6823 97.7798 35.4622 102.771 27.9127 98.4037C20.4146 94.0364 19.5929 82.5464 22.777 69.1327C9.73233 65.2334 0.333984 58.7865 0.333984 50C0.333984 41.2135 9.73233 34.7666 22.777 30.8673C19.5929 17.4536 20.4146 5.96355 27.9127 1.5963C35.4622 -2.77095 45.6823 2.22019 55.5428 11.7346C65.4034 2.22019 75.6234 -2.77095 83.1216 1.5963ZM81.6322 50C83.3783 53.8993 84.9191 57.7987 86.203 61.75C96.988 58.4745 103.048 53.7953 103.048 50C103.048 46.2046 96.988 41.5255 86.203 38.25C84.9191 42.2013 83.3783 46.1007 81.6322 50ZM29.4534 50C27.7073 46.1007 26.1666 42.2013 24.8827 38.25C14.0977 41.5255 8.03754 46.2046 8.03754 50C8.03754 53.7953 14.0977 58.4745 24.8827 61.75C26.1666 57.7987 27.7073 53.8993 29.4534 50ZM75.6748 61.75L74.1341 64.4015C75.7261 64.1416 77.2669 63.8816 78.6535 63.5697C78.294 62.1139 77.7291 60.6062 77.1641 59.0984L75.6748 61.75ZM60.8326 82.7544C68.9984 90.553 76.0857 93.5685 79.2698 91.5929C82.5566 89.7732 83.5324 82.1305 80.9132 71.0044C76.9587 71.8363 72.7988 72.4601 68.5875 72.8761C66.1224 76.3595 63.5032 79.6869 60.8326 82.7544ZM35.4109 38.25L36.9516 35.5985C35.3595 35.8584 33.8188 36.1184 32.4322 36.4303C32.7917 37.8861 33.3566 39.3938 33.9215 40.9016L35.4109 38.25ZM50.2531 17.2456C42.0873 9.44695 35 6.43147 31.7645 8.40713C28.529 10.2268 27.5532 17.8695 30.1724 28.9956C34.2451 28.1497 38.3595 27.5249 42.4981 27.1239C44.9633 23.6405 47.5825 20.3131 50.2531 17.2456Z" fill="#328267"/>
</g>
<defs>
<clipPath id="clip0_16_72">
<rect width="111" height="100" fill="white" transform="translate(0.333984)"/>
</clipPath>
</defs>
</svg>
