<svg width="101" height="100" viewBox="0 0 101 100" fill="none" xmlns="http://www.w3.org/2000/svg">
<path d="M91.1619 5.87203C89.7722 9.2053 87.9735 12.3529 85.8073 15.2424C81.1701 10.4392 75.6162 6.61536 69.4746 3.99722C63.3329 1.37908 56.7283 0.0199223 50.0519 0.000217377C43.3755 -0.0194876 36.763 1.30067 30.606 3.8825C24.449 6.46434 18.8727 10.2554 14.2072 15.0311C9.54164 19.8069 5.88184 25.4702 3.44446 31.6858C1.00708 37.9014 -0.15832 44.5429 0.0172617 51.2171C0.192843 57.8912 1.70584 64.4622 4.46666 70.5411C7.22748 76.6199 11.18 82.083 16.0902 86.6068L17.9417 88.2541C24.9757 94.1874 33.5146 98.0579 42.6129 99.437C51.7112 100.816 61.0136 99.6499 69.4899 96.0676C77.9662 92.4853 85.2855 86.6267 90.6371 79.1407C95.9888 71.6547 99.1639 62.8335 99.8108 53.654C101.254 41.0893 97.4422 25.0257 91.1619 5.87203ZM23.2962 87.0197C22.7669 87.6696 22.0569 88.1481 21.2558 88.3947C20.4547 88.6413 19.5985 88.6451 18.7953 88.4054C17.9921 88.1658 17.2779 87.6935 16.743 87.0482C16.208 86.403 15.8762 85.6137 15.7895 84.78C15.7028 83.9463 15.8651 83.1056 16.2559 82.3641C16.6467 81.6226 17.2484 81.0135 17.9852 80.6137C18.7219 80.214 19.5605 80.0415 20.3952 80.118C21.2299 80.1946 22.0232 80.5167 22.6749 81.0438C23.5287 81.7668 24.0702 82.7919 24.1859 83.9048C24.3017 85.0176 23.983 86.1364 23.2962 87.0197ZM90.8491 72.0863C78.5929 88.4584 52.2332 82.8995 35.444 83.7211C35.444 83.7211 32.4581 83.9296 29.4723 84.3383C29.4723 84.3383 30.6066 83.8253 32.0495 83.3082C43.8928 79.1923 49.4516 78.3666 56.6577 74.6593C70.1483 67.7618 83.6388 52.624 86.3161 36.9691C81.1659 52.0068 65.5152 64.9803 51.3032 70.2305C41.5199 73.8377 23.9134 77.3365 23.9134 77.3365L23.192 76.9237C11.2444 71.0562 10.8357 45.1051 32.6666 36.7648C42.2414 33.0533 51.3074 35.1175 61.7037 32.6446C72.7255 30.0716 85.4946 21.8313 90.6448 11.018C96.408 28.4244 103.41 55.4013 90.8491 72.0863Z" fill="#328267"/>
</svg>
