<svg width="84" height="100" viewBox="0 0 84 100" fill="none" xmlns="http://www.w3.org/2000/svg">
<g clip-path="url(#clip0_16_68)">
<path d="M41.6667 25C30.5417 25 23.625 30.5417 20.8333 41.6667C25 36.125 29.875 34.0417 35.4167 35.4167C38.5833 36.2083 40.875 38.5 43.375 41.0417C47.4583 45.2083 52.0833 50 62.5 50C73.625 50 80.5417 44.4583 83.3333 33.3333C79.1667 38.875 74.2917 40.9583 68.75 39.5833C65.5833 38.7917 63.3333 36.5 60.7917 33.9583C56.7083 29.7917 52.0833 25 41.6667 25ZM20.8333 50C9.70833 50 2.79167 55.5417 0 66.6667C4.16667 61.125 9.04167 59.0417 14.5833 60.4167C17.75 61.2083 20 63.5 22.5417 66.0417C26.625 70.2083 31.25 75 41.6667 75C52.7917 75 59.7083 69.4583 62.5 58.3333C58.3333 63.875 53.4583 65.9583 47.9167 64.5833C44.75 63.7917 42.5 61.5 39.9583 58.9583C35.875 54.7917 31.25 50 20.8333 50Z" fill="#328267"/>
</g>
<defs>
<clipPath id="clip0_16_68">
<rect width="83.3333" height="100" fill="white"/>
</clipPath>
</defs>
</svg>
