<svg width="100" height="100" viewBox="0 0 100 100" fill="none" xmlns="http://www.w3.org/2000/svg">
<g clip-path="url(#clip0_16_74)">
<path d="M0.515625 0H99.2961V100H0.515625V0ZM59.2901 82.5556C62.034 88 67.5766 92.1667 76.2474 92.1667C85.0278 92.1667 91.6132 87.5556 91.6132 79.0556C91.6132 71.2222 87.1681 67.7222 79.2657 64.2778L76.9608 63.2778C72.9547 61.5556 71.2535 60.3889 71.2535 57.6111C71.2535 55.3333 72.9547 53.5556 75.6986 53.5556C78.3327 53.5556 80.0888 54.7222 81.6803 57.6111L88.8693 52.7778C85.851 47.4444 81.5705 45.3889 75.6986 45.3889C67.412 45.3889 62.0888 50.7222 62.0888 57.7778C62.0888 65.4444 66.534 69.0555 73.2291 71.9444L75.534 72.9444C79.8144 74.8333 82.3388 76 82.3388 79.2222C82.3388 81.8889 79.8693 83.8333 76.0279 83.8333C71.473 83.8333 68.8388 81.4444 66.8632 78.1111L59.2901 82.5556ZM55.3937 45.8333H27.9547V54.1667H36.1864V94.4444H45.7901V54.1667H55.3937V45.8333Z" fill="#328267"/>
</g>
<defs>
<clipPath id="clip0_16_74">
<rect width="99" height="100" fill="white" transform="translate(0.333984)"/>
</clipPath>
</defs>
</svg>
