<svg width="99" height="100" viewBox="0 0 99 100" fill="none" xmlns="http://www.w3.org/2000/svg">
<path d="M0.181763 0H98.9622V100H0.181763V0ZM58.9562 82.5556C61.7001 88 67.2427 92.1667 75.9135 92.1667C84.6939 92.1667 91.2793 87.5556 91.2793 79.0556C91.2793 71.2222 86.8342 67.7222 78.9318 64.2778L76.6269 63.2778C72.6208 61.5556 70.9196 60.3889 70.9196 57.6111C70.9196 55.3333 72.6208 53.5556 75.3647 53.5556C77.9988 53.5556 79.7549 54.7222 81.3464 57.6111L88.5354 52.7778C85.5171 47.4444 81.2366 45.3889 75.3647 45.3889C67.0781 45.3889 61.7549 50.7222 61.7549 57.7778C61.7549 65.4444 66.2001 69.0555 72.8952 71.9444L75.2001 72.9444C79.4805 74.8333 82.0049 76 82.0049 79.2222C82.0049 81.8889 79.5354 83.8333 75.694 83.8333C71.1391 83.8333 68.5049 81.4444 66.5293 78.1111L58.9562 82.5556ZM55.0598 45.8333H27.6208V54.1667H35.8525V94.4444H45.4562V54.1667H55.0598V45.8333Z" fill="#328267"/>
</svg>
